<?xml version="1.0" encoding="utf-8"?>
<!-- Generator: Adobe Illustrator 19.2.1, SVG Export Plug-In . SVG Version: 6.00 Build 0)  -->
<svg version="1.1" id="Capa_1" xmlns="http://www.w3.org/2000/svg" xmlns:xlink="http://www.w3.org/1999/xlink" x="0px" y="0px"
	 viewBox="0 0 387 387" style="enable-background:new 0 0 387 387;" xml:space="preserve">
<style type="text/css">
	.st0{fill:#FFFFFF;}
</style>
<g>
	<circle class="st0" cx="153.3" cy="213.4" r="7.7"/>
	<circle class="st0" cx="234" cy="213.4" r="7.7"/>
	<path class="st0" d="M290.4,210.2c0-11.1-8.1-20.4-18.7-22.3v-3.4c0-43.1-35-78.1-78.1-78.1c-43.1,0-78.1,35-78.1,78.1v3.4
		c-10.6,1.9-18.7,11.2-18.7,22.3c0,11.2,8.2,20.6,18.9,22.4c1.5,17.2,9.4,29.9,23.5,37.8c12.5,7,30.3,10.5,54.4,10.5
		c24,0,41.8-3.4,54.4-10.5c14.1-7.9,22-20.6,23.5-37.8C282.2,230.7,290.4,221.4,290.4,210.2z M104.8,210.2c0-6.7,4.5-12.4,10.7-14.1
		v28.2C109.4,222.5,104.8,216.9,104.8,210.2z M263.7,226.2c0,17.6-6.4,29.7-19.7,37.1c-11.3,6.3-27.8,9.4-50.4,9.4
		s-39.1-3.1-50.4-9.4c-13.2-7.4-19.7-19.6-19.7-37.1v-41.7c0-31.7,21.1-58.5,50-67.1c22,0.3,33.7,16.2,33.7,27.6c0,8.8-7.2,16-16,16
		c-6.6,0-12-5.4-12-12c0-4.8,3.9-8.8,8.8-8.8c2.2,0,4-1.8,4-4s-1.8-4-4-4c-9.3,0-16.8,7.5-16.8,16.8c0,11,9,20,20,20
		c13.2,0,24-10.8,24-24c0-8.3-4.2-17.2-11.2-23.9c-2.8-2.7-6-4.9-9.4-6.7c38.2,0.5,69.1,31.8,69.1,70.1L263.7,226.2L263.7,226.2z
		 M271.7,224.3v-28.2c6.1,1.7,10.7,7.4,10.7,14.1C282.4,216.9,277.9,222.5,271.7,224.3z"/>
	<path class="st0" d="M209.1,224.5c-8.5,8.5-22.4,8.5-30.9,0c-1.6-1.6-4.1-1.6-5.7,0c-1.6,1.6-1.6,4.1,0,5.7
		c5.8,5.8,13.5,8.7,21.1,8.7s15.3-2.9,21.1-8.7c1.6-1.6,1.6-4.1,0-5.7C213.2,222.9,210.6,222.9,209.1,224.5z"/>
</g>
</svg>
