<?xml version="1.0" encoding="utf-8"?>
<!-- Generator: Adobe Illustrator 19.2.1, SVG Export Plug-In . SVG Version: 6.00 Build 0)  -->
<svg version="1.1" id="Capa_1" xmlns="http://www.w3.org/2000/svg" xmlns:xlink="http://www.w3.org/1999/xlink" x="0px" y="0px"
	 viewBox="0 0 424.2 424.2" style="enable-background:new 0 0 424.2 424.2;" xml:space="preserve">
<style type="text/css">
	.st0{fill:#FFFFFF;}
</style>
<g>
	<path class="st0" d="M175.7,230.8c1.6,1.6,4.1,1.6,5.7,0c1.6-1.6,1.6-4.1,0-5.7c-2.9-2.9-6.7-4.5-10.8-4.5c-4.1,0-7.9,1.6-10.8,4.5
		c-1.6,1.6-1.6,4.1,0,5.7c0.8,0.8,1.8,1.2,2.8,1.2s2-0.4,2.8-1.2c1.4-1.4,3.2-2.1,5.2-2.1C172.5,228.7,174.4,229.5,175.7,230.8z"/>
	<path class="st0" d="M253.4,220.7c-4.1,0-7.9,1.6-10.8,4.5c-1.6,1.6-1.6,4.1,0,5.7c0.8,0.8,1.8,1.2,2.8,1.2s2-0.4,2.8-1.2
		c1.4-1.4,3.2-2.1,5.2-2.1c2,0,3.8,0.8,5.2,2.1c1.6,1.6,4.1,1.6,5.7,0c1.6-1.6,1.6-4.1,0-5.7C261.3,222.3,257.5,220.7,253.4,220.7z"
		/>
	<path class="st0" d="M306.4,233c0-10.9-7.9-19.9-18.2-21.8v-66.9c0-8.7-4.3-16.7-11.6-21.5c-6.8-4.5-15.2-5.5-22.9-2.8l-25.1-8.5
		c-19.3-6.6-39.6-7.2-58.7-1.9c-25,6.9-39.4,21.5-41.6,42.3c-2,2.6-3.5,5.5-4.6,8.6l-1.9,5.8c-1,3.1,0.1,6.3,2.9,8.1
		c2.8,1.7,6.2,1.4,8.5-0.9c0.8-0.8,1.7-1.4,2.6-2v39.8c-10.3,1.9-18.2,10.9-18.2,21.8c0,11.3,8.5,20.6,19.4,22
		c2.7,15.2,10,29.2,21,40.4C172.4,310,191.6,318,212,318c0,0,0,0,0,0c20.4,0,39.5-7.9,53.9-22.3c11.2-11.2,18.5-25.4,21.2-40.7
		C297.9,253.6,306.4,244.3,306.4,233z M272.2,129.4c5.1,3.4,8,8.8,8,14.9v52.3c-12.4-1.9-21.9-12.7-21.9-25.6l-0.3-44
		C262.8,125.7,267.9,126.5,272.2,129.4z M130.5,165.2l0.8-2.3c2-6,6.6-10.9,12.4-13.4c5.8-2.5,12.5-2.4,18.3,0.3
		c12.1,5.6,26.8,2.6,35.6-7.4l1-1.1c1.5-1.7,1.3-4.2-0.3-5.6c-1.7-1.5-4.2-1.3-5.6,0.3l-1,1.1c-6.5,7.4-17.3,9.6-26.2,5.5
		c-7.8-3.6-16.9-3.8-24.8-0.4c-0.7,0.3-1.4,0.7-2.1,1c4.6-12.4,15.9-21.1,33.6-26c17.6-4.9,36.3-4.2,54,1.8l23.8,8.1l0.3,20.7
		c-10.6,14.4-26.1,24.2-43.7,27.5c-18,3.4-36.4-0.2-51.8-10.2C147.2,160.1,137.7,160.3,130.5,165.2z M125.6,233
		c0-6.4,4.3-11.9,10.2-13.6v21.7c0,1.9,0.1,3.7,0.2,5.6C130,245,125.6,239.5,125.6,233z M260.2,290.1c-12.9,12.9-30,20-48.2,20
		c0,0,0,0,0,0c-18.2,0-35.4-7.2-48.2-20.3c-12.9-13.1-20-30.3-20-48.7v-71.6c2.3,0.2,4.5,0.9,6.5,2.2c17.1,11.2,37.6,15.2,57.7,11.4
		c16.3-3.1,31-11.1,42.2-23V171c0,17.4,13.1,31.7,29.9,33.7v37.2C280.2,260.1,273.1,277.2,260.2,290.1z M288,246.7
		c0.1-1.6,0.2-3.2,0.2-4.8v-22.4c5.9,1.7,10.2,7.2,10.2,13.6C298.4,239.5,294,245,288,246.7z"/>
	<path class="st0" d="M225.3,250.4c-4.3,0.2-8.7,0.4-13.3,0.4s-9-0.2-13.3-0.4c-12.2-0.6-21.8-1.1-27.5,4.3
		c-2.8,2.6-4.2,6.4-4.2,11.2c0,9.2,4.8,17.7,13.7,24.1c8.4,6,19.5,9.4,31.3,9.4c11.8,0,22.9-3.3,31.3-9.4
		c8.8-6.3,13.7-14.9,13.7-24.1c0-4.8-1.4-8.6-4.2-11.2C247.1,249.3,237.5,249.8,225.3,250.4z M176.7,260.5c2-1.9,6.3-2.4,11.6-2.4
		c3.1,0,6.5,0.2,9.9,0.3c4.2,0.2,8.9,0.4,13.7,0.4c4.8,0,9.5-0.2,13.7-0.4c9.5-0.5,18.4-0.9,21.6,2.1c0.4,0.4,1.7,1.6,1.7,5.4
		c0,0.6,0,1.2-0.1,1.7c-5.7-2.5-13.9-2.1-23.5-1.6c-4.3,0.2-8.7,0.4-13.3,0.4c-4.6,0-9-0.2-13.3-0.4c-9.6-0.5-17.8-0.9-23.5,1.6
		c-0.1-0.6-0.1-1.1-0.1-1.7C175.1,262.1,176.3,260.9,176.7,260.5z M212,291.3c-15.5,0-28.8-6.6-34.3-16c3.7-2.2,11.6-1.8,20.6-1.4
		c4.2,0.2,8.9,0.4,13.7,0.4c4.8,0,9.5-0.2,13.7-0.4c9-0.4,16.9-0.8,20.6,1.4C240.8,284.7,227.5,291.3,212,291.3z"/>
</g>
</svg>
