<?xml version="1.0" encoding="utf-8"?>
<!-- Generator: Adobe Illustrator 19.2.1, SVG Export Plug-In . SVG Version: 6.00 Build 0)  -->
<svg version="1.1" id="Capa_1" xmlns="http://www.w3.org/2000/svg" xmlns:xlink="http://www.w3.org/1999/xlink" x="0px" y="0px"
	 viewBox="0 0 424.2 424.2" style="enable-background:new 0 0 424.2 424.2;" xml:space="preserve">
<style type="text/css">
	.st0{fill:#FFFFFF;}
</style>
<g>
	<circle class="st0" cx="170.6" cy="236.9" r="7.5"/>
	<circle class="st0" cx="253.4" cy="236.9" r="7.5"/>
	<path class="st0" d="M170.6,212.9c-4.1,0-7.9,1.6-10.8,4.5c-1.6,1.6-1.6,4.1,0,5.7s4.1,1.6,5.7,0c1.4-1.4,3.2-2.1,5.2-2.1
		c2,0,3.8,0.8,5.2,2.1c0.8,0.8,1.8,1.2,2.8,1.2c1,0,2-0.4,2.8-1.2c1.6-1.6,1.6-4.1,0-5.7C178.5,214.5,174.7,212.9,170.6,212.9z"/>
	<path class="st0" d="M242.6,217.3c-1.6,1.6-1.6,4.1,0,5.7c1.6,1.6,4.1,1.6,5.7,0c2.9-2.9,7.5-2.9,10.3,0c0.8,0.8,1.8,1.2,2.8,1.2
		c1,0,2-0.4,2.8-1.2c1.6-1.6,1.6-4.1,0-5.7C258.3,211.4,248.5,211.4,242.6,217.3z"/>
	<path class="st0" d="M219.7,268.7c-2.1,2.1-4.8,3.2-7.7,3.2c-2.9,0-5.6-1.1-7.7-3.2c-1.6-1.6-4.1-1.6-5.7,0c-1.6,1.6-1.6,4.1,0,5.7
		c3.6,3.6,8.3,5.5,13.4,5.5c5,0,9.8-2,13.4-5.5c1.6-1.6,1.6-4.1,0-5.7C223.8,267.1,221.2,267.1,219.7,268.7z"/>
	<path class="st0" d="M306.4,233c0-10.9-7.9-19.9-18.2-21.8v-66.9c0-8.7-4.3-16.7-11.6-21.5c-6.8-4.5-15.2-5.5-22.9-2.8l-25.1-8.5
		c-19.3-6.6-39.6-7.2-58.7-1.9c-25,6.9-39.4,21.5-41.6,42.3c-2,2.6-3.5,5.5-4.6,8.6l-1.9,5.8c-1,3.1,0.1,6.3,2.9,8.1
		c2.8,1.7,6.2,1.4,8.5-0.9c0.8-0.8,1.7-1.4,2.6-2v39.8c-10.3,1.9-18.2,10.9-18.2,21.8c0,11.3,8.5,20.6,19.4,22
		c2.7,15.2,10,29.2,21,40.4C172.4,310,191.6,318,212,318c0,0,0,0,0,0c20.4,0,39.5-7.9,53.9-22.3c11.2-11.2,18.5-25.4,21.2-40.7
		C297.9,253.6,306.4,244.3,306.4,233z M272.2,129.4c5.1,3.4,8,8.8,8,14.9v52.3c-12.4-1.9-21.9-12.7-21.9-25.6l-0.3-44
		C262.8,125.7,267.9,126.5,272.2,129.4z M130.5,165.2l0.8-2.3c2-6,6.6-10.9,12.4-13.4c5.8-2.5,12.5-2.4,18.3,0.3
		c12.1,5.6,26.8,2.6,35.6-7.4l1-1.1c1.5-1.7,1.3-4.2-0.3-5.6c-1.7-1.5-4.2-1.3-5.6,0.3l-1,1.1c-6.5,7.4-17.3,9.6-26.2,5.5
		c-7.8-3.6-16.9-3.8-24.8-0.4c-0.7,0.3-1.4,0.7-2.1,1c4.6-12.4,15.9-21.1,33.6-26c17.6-4.9,36.3-4.2,54,1.8l23.8,8.1l0.3,20.7
		c-10.6,14.4-26.1,24.2-43.7,27.5c-18,3.4-36.5-0.2-51.8-10.2C147.2,160.1,137.7,160.3,130.5,165.2z M125.6,233
		c0-6.4,4.3-11.9,10.2-13.6v21.7c0,1.9,0.1,3.7,0.2,5.6C130,245,125.6,239.5,125.6,233z M260.2,290.1c-12.9,12.9-30,20-48.2,20
		c0,0,0,0,0,0c-18.2,0-35.4-7.2-48.2-20.3c-12.9-13.1-20-30.3-20-48.7v-71.6c2.3,0.2,4.5,0.9,6.5,2.2c17.1,11.2,37.6,15.2,57.7,11.4
		c16.3-3.1,31-11.1,42.2-23V171c0,17.4,13.1,31.7,29.9,33.7v37.2C280.2,260.1,273.1,277.2,260.2,290.1z M288,246.7
		c0.1-1.6,0.2-3.2,0.2-4.8v-22.4c5.9,1.7,10.2,7.2,10.2,13.6C298.4,239.5,294,245,288,246.7z"/>
</g>
</svg>
