<?xml version="1.0" encoding="utf-8"?>
<!-- Generator: Adobe Illustrator 19.2.1, SVG Export Plug-In . SVG Version: 6.00 Build 0)  -->
<svg version="1.1" id="Capa_1" xmlns="http://www.w3.org/2000/svg" xmlns:xlink="http://www.w3.org/1999/xlink" x="0px" y="0px"
	 viewBox="0 0 466 466" style="enable-background:new 0 0 466 466;" xml:space="preserve">
<style type="text/css">
	.st0{fill:#FFFFFF;}
</style>
<g>
	<path class="st0" d="M340,249.6c0-4.2-1.3-8.2-3.4-11.5c0.9-5.5,1.3-11.1,1.3-16.7c0-57.9-47.1-105-105-105s-105,47.1-105,105
		c0,5.6,0.4,11.2,1.3,16.7c-2.2,3.3-3.4,7.3-3.4,11.5c0,10.6,7.8,19.4,17.9,21c5.4,44.4,43.3,78.9,89.1,78.9s83.7-34.5,89.1-78.9
		C332.2,268.9,340,260.1,340,249.6z M133.9,249.6c0-5.9,3.9-10.9,9.2-12.6l0,22.7c0,0.9,0,1.7,0,2.6
		C137.8,260.5,133.9,255.5,133.9,249.6z M232.9,341.4c-45.1,0-81.8-36.7-81.8-81.8l0-41.4c0-6.2,3.2-11.6,8.7-14.6
		c5.4-2.9,11.7-2.7,16.8,0.5c16.8,10.7,36.3,16.4,56.3,16.4c20,0,39.5-5.7,56.3-16.4c5.1-3.3,11.4-3.5,16.8-0.5
		c5.4,3,8.7,8.4,8.7,14.6l0,41.4C314.7,304.7,278,341.4,232.9,341.4z M309.9,196.6c-8-4.4-17.3-4.1-25,0.8
		c-15.5,9.9-33.5,15.1-52,15.1c-18.5,0-36.5-5.2-52-15.1c-7.6-4.9-17-5.2-25-0.8c-8,4.4-12.8,12.5-12.8,21.6v10.5
		c-2.4,0.5-4.6,1.3-6.6,2.5c-0.3-3.3-0.5-6.5-0.5-9.8c0-53.5,43.5-97,97-97s97,43.5,97,97c0,3.3-0.2,6.6-0.5,9.8
		c-2-1.2-4.3-2-6.6-2.5v-10.5C322.7,209.1,317.9,201,309.9,196.6z M322.7,262.2c0-0.9,0-1.7,0-2.6l0-22.7c5.3,1.7,9.2,6.7,9.2,12.6
		C332,255.5,328.1,260.5,322.7,262.2z"/>
	<circle class="st0" cx="196.3" cy="259.8" r="6.7"/>
	<circle class="st0" cx="270.8" cy="259.8" r="6.7"/>
	<path class="st0" d="M258.7,242.6c-1.6,1.6-1.6,4.1,0,5.7c1.6,1.6,4.1,1.6,5.7,0c3.5-3.5,9.3-3.5,12.9,0c0.8,0.8,1.8,1.2,2.8,1.2
		c1,0,2-0.4,2.8-1.2c1.6-1.6,1.6-4.1,0-5.7C276.2,235.9,265.4,235.9,258.7,242.6z"/>
	<path class="st0" d="M196.3,237.6c-4.6,0-8.9,1.8-12.1,5c-1.6,1.6-1.6,4.1,0,5.7c1.6,1.6,4.1,1.6,5.7,0c1.7-1.7,4-2.7,6.4-2.7
		c2.4,0,4.7,0.9,6.4,2.7c0.8,0.8,1.8,1.2,2.8,1.2c1,0,2-0.4,2.8-1.2c1.6-1.6,1.6-4.1,0-5.7C205.2,239.4,200.9,237.6,196.3,237.6z"/>
	<path class="st0" d="M249.2,286.3c-2.2,0-4,1.8-4,4c0,6.7-5.5,12.2-12.2,12.2s-12.2-5.5-12.2-12.2c0-2.2-1.8-4-4-4s-4,1.8-4,4
		c0,11.2,9.1,20.2,20.2,20.2c11.2,0,20.2-9.1,20.2-20.2C253.2,288.1,251.4,286.3,249.2,286.3z"/>
</g>
</svg>
