<?xml version="1.0" encoding="utf-8"?>
<!-- Generator: Adobe Illustrator 19.2.1, SVG Export Plug-In . SVG Version: 6.00 Build 0)  -->
<svg version="1.1" id="Capa_1" xmlns="http://www.w3.org/2000/svg" xmlns:xlink="http://www.w3.org/1999/xlink" x="0px" y="0px"
	 viewBox="0 0 433.4 433.4" style="enable-background:new 0 0 433.4 433.4;" xml:space="preserve">
<style type="text/css">
	.st0{fill:#FFFFFF;}
</style>
<g>
	<path class="st0" d="M224.2,280.4c-7.6,3.2-16.3-0.3-19.5-7.9c-0.9-2-3.2-3-5.2-2.1c-2,0.9-3,3.2-2.1,5.2
		c3.7,8.7,12.2,13.9,21.1,13.9c3,0,6-0.6,8.9-1.8c2-0.9,3-3.2,2.1-5.2C228.6,280.5,226.2,279.6,224.2,280.4z"/>
	<path class="st0" d="M311.5,236.5c0-5.5-2-10.7-5.6-14.8c1.5-30,2.3-50-7.2-68.5c-6.5-12.6-16.9-23.1-31.1-31.3
		c-16.5-9.5-35.4-14.2-54.5-13.5c-16.8,0.6-32.5,8.5-43.2,21.6c-13.9,0.8-26.6,8.3-33.4,20.1c-0.6,1-1.1,2-1.7,3.1
		c-9.5,18.5-8.7,38.5-7.2,68.5c-3.5,3.9-5.6,9.1-5.6,14.8c0,11.7,9,21.3,20.4,22.2c4.8,15.3,17.4,32.7,37.7,51.8
		c10.3,9.7,23.5,14.6,36.7,14.6c13.2,0,26.4-4.9,36.7-14.6c20.3-19.1,32.9-36.5,37.7-51.8C302.5,257.7,311.5,248.1,311.5,236.5z
		 M213.4,116.4c17.6-0.6,35,3.7,50.2,12.4c12.8,7.4,22.2,16.8,28,28c8,15.6,7.9,32.5,6.4,62.6l-8.9,0.5c-60.2,2-93.5-26-103.4-36
		l-9.6-48.9C185.4,123.7,198.9,116.9,213.4,116.4z M141.8,156.8c0.5-0.9,1-1.8,1.5-2.7c5.2-8.9,14.7-14.8,25.2-16l9.3,47.2
		c-6.4,14.6-17.2,22.3-34.1,24.1c-2,0.2-3.6,1.9-3.6,4v1c-1.7,0.3-3.4,0.8-4.9,1.5C134,188,134.1,171.8,141.8,156.8z M129.9,236.5
		c0-6.5,4.3-12,10.3-13.7v22.6c0,1.6,0.1,3.2,0.3,4.9C134.4,248.6,129.9,243.1,129.9,236.5z M247.9,304.7c-17.5,16.5-45,16.5-62.5,0
		c-24.4-23-37.3-43.5-37.3-59.3l0-28.3c16.3-2.6,27.8-10.6,35.1-24.4c6.2,5.7,16.2,13.5,30.5,20.4c21.3,10.2,45.3,15.3,71.5,14.9
		v17.3C285.3,261.1,272.3,281.7,247.9,304.7z M292.9,250.2c0.2-1.7,0.3-3.3,0.3-4.9v-17.6l6.9-0.4c2.2,2.6,3.3,5.8,3.3,9.2
		C303.5,243.1,299,248.6,292.9,250.2z"/>
	<path class="st0" d="M167.4,237.4c-1.6,1.6-1.6,4.1,0,5.7c1.6,1.6,4.1,1.6,5.7,0c2.9-2.9,7.5-2.9,10.4,0c0.8,0.8,1.8,1.2,2.8,1.2
		s2-0.4,2.8-1.2c1.6-1.6,1.6-4.1,0-5.7C183.1,231.4,173.4,231.4,167.4,237.4z"/>
	<circle class="st0" cx="255.6" cy="238.5" r="7.5"/>
</g>
</svg>
