<?xml version="1.0" encoding="utf-8"?>
<!-- Generator: Adobe Illustrator 19.2.1, SVG Export Plug-In . SVG Version: 6.00 Build 0)  -->
<svg version="1.1" id="Capa_1" xmlns="http://www.w3.org/2000/svg" xmlns:xlink="http://www.w3.org/1999/xlink" x="0px" y="0px"
	 viewBox="0 0 425.3 425.3" style="enable-background:new 0 0 425.3 425.3;" xml:space="preserve">
<style type="text/css">
	.st0{fill:#FFFFFF;}
</style>
<g>
	<g>
		<path class="st0" d="M175.1,220.5c-4.7,0-9.1,1.8-12.5,5.2c-1.6,1.6-1.6,4.1,0,5.7c1.6,1.6,4.1,1.6,5.7,0c1.8-1.8,4.2-2.8,6.8-2.8
			s5,1,6.8,2.8c0.8,0.8,1.8,1.2,2.8,1.2s2-0.4,2.8-1.2c1.6-1.6,1.6-4.1,0-5.7C184.2,222.4,179.8,220.5,175.1,220.5z"/>
		<path class="st0" d="M260,232.5c1,0,2-0.4,2.8-1.2c1.6-1.6,1.6-4.1,0-5.7c-3.3-3.3-7.8-5.2-12.5-5.2s-9.1,1.8-12.5,5.2
			c-1.6,1.6-1.6,4.1,0,5.7c1.6,1.6,4.1,1.6,5.7,0c1.8-1.8,4.2-2.8,6.8-2.8s5,1,6.8,2.8C258,232.1,259,232.5,260,232.5z"/>
	</g>
	<path class="st0" d="M232.2,255.3c-2.2,0-4,1.8-4,4c0,3.2-2.6,5.7-5.7,5.7c-3.2,0-5.7-2.6-5.7-5.7c0-2.2-1.8-4-4-4s-4,1.8-4,4
		c0,3.2-2.6,5.7-5.7,5.7c-3.2,0-5.7-2.6-5.7-5.7c0-2.2-1.8-4-4-4s-4,1.8-4,4c0,7.6,6.2,13.7,13.7,13.7c3.8,0,7.3-1.6,9.7-4.1
		c2.5,2.5,5.9,4.1,9.7,4.1c7.6,0,13.7-6.2,13.7-13.7C236.2,257.1,234.4,255.3,232.2,255.3z"/>
	<g>
		<path class="st0" d="M165.9,241h-9c-2.2,0-4,1.8-4,4s1.8,4,4,4h9c2.2,0,4-1.8,4-4S168.1,241,165.9,241z"/>
		<path class="st0" d="M272.6,245c0-2.2-1.8-4-4-4h-9c-2.2,0-4,1.8-4,4s1.8,4,4,4h9C270.8,249,272.6,247.2,272.6,245z"/>
	</g>
	<path class="st0" d="M285.7,142.8c-8.3-11.1-19.3-20.2-31.6-26.5c-12.9-6.6-26.8-9.9-41.4-9.9c-14.7,0-28.7,3.4-41.7,10
		c-12.4,6.4-23.3,15.6-31.6,26.8c-11.8,15.8-18.1,34.7-18.1,54.5v93.7c0,2.2,1.8,4,4,4h33.1c14,15,33.6,23.5,54.1,23.5
		c20.5,0,40.1-8.6,54.1-23.5h33.4c2.2,0,4-1.8,4-4v-93.7C304.1,177.8,297.8,158.8,285.7,142.8z M212.6,311.1
		c-18.8,0-36.8-8.1-49.3-22.2c-10.7-12.1-16.6-27.6-16.6-43.8v-40.7c43.3-10.9,88.6-11,131.9-0.1v40.8c0,16.2-5.9,31.7-16.6,43.8
		C249.4,303,231.4,311.1,212.6,311.1z M296.1,287.5h-23c8.7-12.4,13.4-27.2,13.4-42.4v-38.7c0.5,0.1,1.1,0.3,1.6,0.4
		c0.4,0.1,0.7,0.2,1.1,0.2c1.7,0,3.3-1.1,3.8-2.9c0.6-2.1-0.6-4.3-2.7-5c-5.5-1.6-11.1-3-16.7-4.3c0.8-7.4,0.9-23.6-10.4-38.2
		c-1.4-1.7-3.9-2.1-5.6-0.7c-1.7,1.4-2.1,3.9-0.7,5.6c9.2,11.8,9.4,25.2,8.8,31.6c-24.4-4.7-49.2-6.2-73.8-4.3
		c0.2-7,2.2-17.7,3-21.9c0.5-2.2-0.9-4.3-3.1-4.7c-2.2-0.5-4.3,0.9-4.7,3.1c-0.4,1.7-3.1,15.2-3.2,24.3c-6.5,0.7-13,1.6-19.5,2.7
		c0.3-8.2,2.1-25.3,11.5-35.4c1.5-1.6,1.4-4.1-0.2-5.7c-1.6-1.5-4.1-1.4-5.7,0.2c-12.1,13-13.6,34.2-13.7,42.5
		c-7.1,1.5-14.2,3.2-21.3,5.3c-2.1,0.6-3.3,2.8-2.7,5c0.6,2.1,2.8,3.3,5,2.7c0.4-0.1,0.8-0.2,1.3-0.4v38.6
		c0,15.3,4.7,30.1,13.4,42.4h-22.6v-89.7c0-18.1,5.7-35.3,16.5-49.8c7.6-10.2,17.6-18.7,28.9-24.5c11.8-6.1,24.6-9.2,38-9.2
		c13.3,0,26,3,37.8,9c11.2,5.7,21.2,14.1,28.8,24.2c11,14.5,16.8,31.9,16.8,50.1L296.1,287.5L296.1,287.5z"/>
</g>
</svg>
