<?xml version="1.0" encoding="utf-8"?>
<!-- Generator: Adobe Illustrator 19.2.1, SVG Export Plug-In . SVG Version: 6.00 Build 0)  -->
<svg version="1.1" id="Capa_1" xmlns="http://www.w3.org/2000/svg" xmlns:xlink="http://www.w3.org/1999/xlink" x="0px" y="0px"
	 viewBox="0 0 421.6 421.6" style="enable-background:new 0 0 421.6 421.6;" xml:space="preserve">
<style type="text/css">
	.st0{fill:#FFFFFF;}
</style>
<g>
	<path class="st0" d="M224.6,264.6c-7.6,7.6-20.1,7.6-27.7,0c-1.6-1.6-4.1-1.6-5.7,0c-1.6,1.6-1.6,4.1,0,5.7
		c5.4,5.4,12.4,8.1,19.5,8.1c7.1,0,14.1-2.7,19.5-8.1c1.6-1.6,1.6-4.1,0-5.7C228.7,263,226.1,263,224.6,264.6z"/>
	<path class="st0" d="M301.3,304.3c-9.4-10.4-9.8-36.8-8.7-64.2c4.1-3.8,6.6-9.3,6.6-15.3c0-5.3-2-10.1-5.2-13.8
		c1.4-27.9,2.1-46.6-6.8-63.8c-6-11.8-15.8-21.6-29-29.2c-15.4-8.9-33-13.2-50.9-12.6c-15.7,0.6-30.3,7.9-40.4,20.1
		c-13,0.8-24.8,7.9-31.2,18.8c-0.5,0.9-1.1,1.9-1.6,2.9c-8.9,17.2-8.1,35.9-6.8,63.8c-3.2,3.7-5.2,8.5-5.2,13.8
		c0,6,2.6,11.5,6.6,15.3c1.1,27.4,0.7,53.8-8.7,64.2c-0.9,1-1.2,2.3-0.9,3.6c0.3,1.3,1.2,2.3,2.5,2.8c10.5,4,20.8,5.4,30,5.4
		c9.6,0,18.1-1.5,24.8-3.3c11.6-3.1,19.8-7.5,22.6-9.2c3.8,0.6,7.7,1,11.7,1c4,0,7.9-0.3,11.7-1c2.8,1.6,11,6,22.6,9.2
		c8.9,2.4,17.2,3.3,24.6,3.3c12.4,0,22.7-2.6,30.1-5.4c1.2-0.5,2.2-1.5,2.5-2.8C302.5,306.6,302.1,305.3,301.3,304.3z M282.2,233.1
		v-19.9c0-0.1,0-0.1,0-0.2v-0.6c5.2,1.7,9,6.6,9,12.4c0,5.8-3.8,10.8-9.1,12.4C282.2,235.9,282.2,234.5,282.2,233.1z M141.3,150.9
		c0.4-0.8,0.9-1.7,1.4-2.5c5.3-9.1,15.3-14.8,26.3-14.9c0,0,0,0,0.1,0c1.2,0,2.4-0.6,3.1-1.6c8.6-11.3,21.6-18,35.5-18.5
		c16.4-0.6,32.5,3.4,46.6,11.5c11.9,6.8,20.6,15.6,25.9,25.9c7.1,13.8,7.3,28.8,6.1,54.6c-1.3-0.5-2.6-0.9-4-1.2v-4.1
		c0-2.2-1.8-4-4-4c-2.2,0-4,1.8-4,4v9.1c-55.1,0.6-84.9-26-92.9-34.3c-0.9-1-2.3-1.4-3.6-1.2c-1.3,0.3-2.4,1.2-3,2.4
		c-5.8,14.1-16,21.5-32,23.3c-2,0.2-3.6,1.9-3.6,4v0.7c-1.4,0.3-2.8,0.7-4,1.2C134,179.7,134.3,164.7,141.3,150.9z M139.4,237.2
		c-5.3-1.7-9.1-6.6-9.1-12.4c0-5.8,3.8-10.7,9-12.4v20.6C139.2,234.5,139.3,235.9,139.4,237.2z M129.6,304.9
		c7.1-12.2,8.4-32.4,7.5-60c1.1,0.3,2.2,0.6,3.3,0.7c4.5,25.6,22.8,46.6,46.8,55C175.6,305.6,153.7,312.2,129.6,304.9z M210.7,296.6
		c-35,0-63.5-28.5-63.5-63.5l0-26.1c15-2.5,25.7-9.9,32.5-22.5c5.8,5.3,15.1,12.5,28.2,18.8c19.7,9.5,42,14.2,66.3,13.9v15.9
		C274.2,268.1,245.8,296.6,210.7,296.6z M247.3,305.1c-5.1-1.4-9.6-3-13-4.5c24.1-8.4,42.3-29.4,46.9-55c1.1-0.2,2.2-0.4,3.3-0.7
		c-0.9,27.6,0.3,47.9,7.5,60C277.8,309.2,262.8,309.3,247.3,305.1z"/>
	<path class="st0" d="M162.9,221.2c-1.6,1.6-1.6,4.1,0,5.7c1.6,1.6,4.1,1.6,5.7,0c2.6-2.6,6.7-2.6,9.3,0c0.8,0.8,1.8,1.2,2.8,1.2
		s2-0.4,2.8-1.2c1.6-1.6,1.6-4.1,0-5.7C177.9,215.5,168.6,215.5,162.9,221.2z"/>
	<path class="st0" d="M258.6,226.9c1.6-1.6,1.6-4.1,0-5.7c-5.7-5.7-14.9-5.7-20.6,0c-1.6,1.6-1.6,4.1,0,5.7c1.6,1.6,4.1,1.6,5.7,0
		c2.6-2.6,6.7-2.6,9.3,0c0.8,0.8,1.8,1.2,2.8,1.2S257.8,227.7,258.6,226.9z"/>
</g>
</svg>
