<?xml version="1.0" encoding="utf-8"?>
<!-- Generator: Adobe Illustrator 19.2.1, SVG Export Plug-In . SVG Version: 6.00 Build 0)  -->
<svg version="1.1" id="Capa_1" xmlns="http://www.w3.org/2000/svg" xmlns:xlink="http://www.w3.org/1999/xlink" x="0px" y="0px"
	 viewBox="0 0 455.7 455.7" style="enable-background:new 0 0 455.7 455.7;" xml:space="preserve">
<style type="text/css">
	.st0{fill:#FFFFFF;}
</style>
<g>
	<circle class="st0" cx="189.1" cy="259.2" r="7"/>
	<circle class="st0" cx="266.6" cy="259.2" r="7"/>
	<path class="st0" d="M254.1,242.2c-1.6,1.6-1.6,4.1,0,5.7s4.1,1.6,5.7,0c1.8-1.8,4.2-2.8,6.8-2.8s5,1,6.8,2.8
		c0.8,0.8,1.8,1.2,2.8,1.2c1,0,2-0.4,2.8-1.2c1.6-1.6,1.6-4.1,0-5.7c-3.3-3.3-7.8-5.2-12.5-5.2C261.9,237,257.4,238.9,254.1,242.2z"
		/>
	<path class="st0" d="M195.9,247.9c0.8,0.8,1.8,1.2,2.8,1.2s2-0.4,2.8-1.2c1.6-1.6,1.6-4.1,0-5.7c-6.9-6.9-18.1-6.9-24.9,0
		c-1.6,1.6-1.6,4.1,0,5.7c1.6,1.6,4.1,1.6,5.7,0C186.1,244.1,192.2,244.1,195.9,247.9z"/>
	<path class="st0" d="M310.2,221.3c0.3-7,0.4-23.2,0.4-24.7c0-6.9-0.8-13.6-2.4-19.9c11.5-4.7,19.2-16,19.2-28.7
		c0-17.1-13.9-31-31-31c-8.9,0-17.4,3.8-23.2,10.4c-13-8.6-28.6-13.6-45.3-13.6s-32.3,5-45.3,13.6c-5.8-6.6-14.3-10.4-23.2-10.4
		c-17.1,0-31,13.9-31,31c0,12.7,7.7,24,19.2,28.7c-1.6,6.4-2.4,13.1-2.4,19.9c0,0.2,0.2,17,0.6,24.5c-6.8,3.9-11,11-11,19
		c0,5.9,2.3,11.4,6.4,15.5c3.2,3.2,7.2,5.3,11.5,6.1v1.6c0,18.1,13.3,39.7,39.5,64.3c10,9.4,22.8,14.1,35.7,14.1
		c12.8,0,25.7-4.7,35.7-14.1c26.2-24.6,39.5-46.3,39.5-64.3v-1.6c10.2-1.9,17.9-10.8,17.9-21.5C320.9,232.4,316.8,225.2,310.2,221.3
		z M266.7,132.9c21.5,13.1,35.8,36.8,35.8,63.8c0,2.9-0.1,15.3-0.3,22.2l0,0c-1.4-0.3-2.9-0.8-4.2-1.4
		c-21.7-10.7-32.2-32.5-34.4-37.6C265.1,174,270.1,150.3,266.7,132.9z M319.4,148c0,5-1.6,9.7-4.4,13.5c-9-11-10-26.9-9.9-34.8
		C313.4,130.2,319.4,138.4,319.4,148z M296.4,125c0.2,0,0.5,0,0.7,0c-0.3,8.4,0.4,28.2,12.1,42.1c-1.1,0.7-2.2,1.3-3.4,1.9
		c-5.2-14.6-14.3-27.3-26.1-36.8C284,127.7,290,125,296.4,125z M256.9,127.8c5.7,12.3,2,36.8-0.6,48.5c-7,0.4-24.4,1.9-43.3,8.6
		c-14.2,5-26.3,11.8-35.9,20.2c-9.1,8-16,17.5-20.6,28.4c-1-3.2-2.8-12.3-2.9-14.1c-0.3-5.7-0.5-16.7-0.5-22.7
		c0-41.2,33.5-74.8,74.7-74.8C238.1,121.9,247.9,124,256.9,127.8z M136.3,148c0-9.6,5.9-17.8,14.2-21.2c0.1,7.9-1,23.7-9.9,34.7
		C137.9,157.6,136.3,153,136.3,148z M146.4,167.1c11.7-13.8,12.4-33.6,12.1-42c0.3,0,0.6,0,0.8,0c6.4,0,12.4,2.6,16.7,7.2
		c-11.8,9.5-21,22.2-26.1,36.8C148.6,168.5,147.5,167.8,146.4,167.1z M146.8,250c-2.6-2.6-4.1-6.1-4.1-9.8c0-4,1.7-7.7,4.5-10.2
		c1.9,7.6,4.5,14.2,5.4,16.4v7.2C150.5,252.9,148.5,251.7,146.8,250z M295,263.3c0,15.6-12.8,35.8-37,58.5
		c-16.9,15.9-43.5,15.9-60.4,0c-24.2-22.7-37-42.9-37-58.5v-5.2l0,0c0-14.9,5.3-29.3,15.1-40.4c2-2.3,4.2-4.4,6.5-6.5
		c8.8-7.8,19.9-14,33.1-18.7c18.1-6.4,35.1-7.9,41.5-8.2c3.5,7.6,15,29.4,38.1,40.5L295,263.3L295,263.3z M303,253.5v-26.4l0,0
		c1.7,0.3,3.2,1,4.6,2.1c3.3,2.6,5.4,6.6,5.4,11C312.9,246.5,308.7,251.8,303,253.5z"/>
</g>
<path class="st0" d="M234.2,298.7c-4.1,1.6-8.3,1.6-12.4,0c-2.1-0.8-4.4,0.2-5.2,2.2c-0.8,2.1,0.2,4.4,2.2,5.2
	c3,1.2,6.1,1.8,9.1,1.8c3.1,0,6.2-0.6,9.1-1.8c2.1-0.8,3.1-3.1,2.2-5.2C238.6,298.9,236.3,297.9,234.2,298.7z"/>
</svg>
