<?xml version="1.0" encoding="utf-8"?>
<!-- Generator: Adobe Illustrator 19.2.1, SVG Export Plug-In . SVG Version: 6.00 Build 0)  -->
<svg version="1.1" id="Capa_1" xmlns="http://www.w3.org/2000/svg" xmlns:xlink="http://www.w3.org/1999/xlink" x="0px" y="0px"
	 viewBox="0 0 423.2 423.2" style="enable-background:new 0 0 423.2 423.2;" xml:space="preserve">
<style type="text/css">
	.st0{fill:#FFFFFF;}
</style>
<g>
	<path class="st0" d="M174,233.2c2.6,0,5,1,6.8,2.8c0.8,0.8,1.8,1.2,2.8,1.2c1,0,2-0.4,2.8-1.2c1.6-1.6,1.6-4.1,0-5.7
		c-3.3-3.3-7.8-5.2-12.5-5.2c-4.7,0-9.1,1.8-12.5,5.2c-1.6,1.6-1.6,4.1,0,5.7c1.6,1.6,4.1,1.6,5.7,0
		C169,234.2,171.4,233.2,174,233.2z"/>
	<path class="st0" d="M249.3,225.2c-4.7,0-9.1,1.8-12.5,5.2c-1.6,1.6-1.6,4.1,0,5.7c1.6,1.6,4.1,1.6,5.7,0c1.8-1.8,4.2-2.8,6.8-2.8
		s5,1,6.8,2.8c0.8,0.8,1.8,1.2,2.8,1.2c1,0,2-0.4,2.8-1.2c1.6-1.6,1.6-4.1,0-5.7C258.4,227,254,225.2,249.3,225.2z"/>
	<path class="st0" d="M312.3,274.8c-6.1-15.4-20-24.6-25.4-27.8c9-2.3,15.7-10.6,15.7-20.3c0-4.3-1.3-8.4-3.7-11.9
		c1.4-6.3,2.1-12.7,2.1-19.2c0-49.5-40.3-89.8-89.8-89.8c-49.5,0-89.8,40.3-89.8,89.8c0,6.8,0.8,13.6,2.3,20.2
		c-1.9,3.2-3,6.9-3,10.8c0,9.8,6.7,18,15.7,20.3c-5.4,3.2-19.3,12.5-25.4,27.8c-7.5,18.9-0.2,39.2,0.1,40c0.4,1.1,1.2,1.9,2.3,2.3
		c0.5,0.2,1,0.3,1.5,0.3c0.6,0,1.2-0.1,1.8-0.4c0.8-0.4,20.1-10.1,27.6-29l0,0c1.3-3.4,2.2-6.8,2.7-10.1c2.6,4.7,5.7,9.1,9.4,13.2
		c14,15.8,34.2,24.9,55.3,24.9c21.1,0,41.3-9.1,55.3-24.9c3.6-4.1,6.7-8.5,9.4-13.2c0.5,3.3,1.4,6.8,2.7,10.1
		c7.5,18.9,26.8,28.6,27.6,29c0.6,0.3,1.2,0.4,1.8,0.4c0.5,0,1-0.1,1.5-0.3c1.1-0.4,1.9-1.3,2.3-2.3
		C312.5,314,319.8,293.7,312.3,274.8z M285.6,239v-8.4c1.2,0.2,2.3,0.4,3.5,0.6c0.2,0,0.4,0,0.6,0c1.5,0,2.9-0.8,3.6-2.2l1.3-2.5
		c0,0,0,0,0,0C294.6,232.4,290.8,237.3,285.6,239z M211.2,113.8c45.1,0,81.8,36.7,81.8,81.8c0,6.5-0.8,12.9-2.3,19.2c0,0,0,0,0,0
		c-0.6,2.4-3.2,8-3.2,8c-19.4-3.7-35.8-13.1-48.7-28c-10.2-11.8-14.3-22.8-14.3-22.9c-0.6-1.5-2-2.6-3.6-2.6c-1.7,0-3.1,0.9-3.8,2.4
		c-0.3,0.7-6.4,15.1-0.1,30.9c-11.8-1.7-22.7-7.8-32.7-18.3c-9.1-9.6-13.9-19.3-13.9-19.4c-0.9-1.9-3.1-2.8-5.1-2
		c-1.5,0.6-2.5,2.2-2.5,3.8c0,25.3-15.1,35.2-20.5,38c-1.1,0.5-8.9,2.4-11.8,4.2c-0.7-4.4-1.1-8.8-1.1-13.3
		C129.4,150.5,166.1,113.8,211.2,113.8z M128.7,226.7c0-5.8,3.8-10.7,9-12.4V239C132.5,237.3,128.7,232.4,128.7,226.7z M136.8,285.1
		c-4.4,11.1-14,18.6-19.5,22.3c-1.5-6.5-3.2-18.5,1.2-29.6c4.4-11.1,14-18.6,19.5-22.3C139.5,261.9,141.2,274,136.8,285.1z
		 M261,285.8c-12.5,14.1-30.5,22.2-49.3,22.2s-36.8-8.1-49.3-22.2c-10.7-12.1-16.6-27.6-16.6-43.8v-30.1c2.7-1.4,7.1-4,11.4-8.5
		c4.7-4.9,10.2-12.8,12.5-24.5c2.3,3.3,5.2,7,8.7,10.7c13.3,14.1,29,21.5,45.5,21.5c1.5,0,2.8-0.8,3.5-2.1s0.7-2.8-0.1-4.1
		c-4.4-7-5.3-14.1-4.9-19.6c2.4,4.2,5.8,9.3,10.3,14.5c8.7,10.2,23.3,22.7,45.1,28.9V242C277.6,258.2,271.7,273.7,261,285.8z
		 M306,307.4c-5.5-3.6-15.1-11.2-19.5-22.3c-4.4-11.1-2.7-23.1-1.2-29.6c5.5,3.7,15.1,11.2,19.5,22.3
		C309.3,288.8,307.5,300.9,306,307.4z"/>
	<path class="st0" d="M254.9,259.4c-4.1-7.8-13.2-11.4-21.6-8.6c-13.9,4.7-29.3,4.7-43.2,0c-8.4-2.8-17.5,0.8-21.6,8.6l-0.3,0.6
		c-2.5,4.6-2.8,10.1-0.8,15c2,4.9,6,8.7,11,10.4c10.8,3.6,22.1,5.4,33.4,5.4c11.3,0,22.6-1.8,33.4-5.4c5-1.7,9-5.5,11-10.4
		c1.9-4.9,1.7-10.3-0.8-15L254.9,259.4z M247.4,262.3c-1.1,1.2-2.5,2.1-4,2.7v-6.2C245,259.6,246.4,260.8,247.4,262.3z M237.4,279.3
		c-2.8,0.8-5.6,1.4-8.4,1.9v-6.3c2.8-0.5,5.6-1.1,8.4-1.8V279.3z M185.9,273.1c2.8,0.7,5.6,1.3,8.4,1.8v6.3
		c-2.8-0.5-5.6-1.1-8.4-1.9V273.1z M200.3,275.7c2.8,0.3,5.6,0.5,8.4,0.6v6.4c-2.8-0.1-5.6-0.3-8.4-0.6V275.7z M214.7,262.2
		c2.8-0.1,5.6-0.4,8.4-0.8v8.2c-2.8,0.3-5.6,0.5-8.4,0.6V262.2z M208.7,270.3c-2.8-0.1-5.6-0.3-8.4-0.6v-8.2
		c2.8,0.4,5.6,0.7,8.4,0.8V270.3z M214.7,276.3c2.8-0.1,5.6-0.3,8.4-0.6v6.4c-2.8,0.3-5.6,0.5-8.4,0.6V276.3z M235.8,258.4
		c0.5-0.2,1.1-0.3,1.6-0.4v8.9c-2.8,0.8-5.6,1.4-8.4,1.9v-8.5C231.3,259.8,233.6,259.1,235.8,258.4z M194.3,260.3v8.5
		c-2.8-0.5-5.6-1.1-8.4-1.9V258c0.5,0.1,1.1,0.2,1.6,0.4C189.7,259.1,192,259.8,194.3,260.3z M179.9,258.8v6.2
		c-1.5-0.6-2.9-1.5-4-2.7C176.9,260.8,178.3,259.6,179.9,258.8z M174.7,272c-0.4-1.1-0.7-2.2-0.7-3.4c1.4,1,2.9,1.8,4.6,2.4
		c0.4,0.1,0.9,0.3,1.3,0.4v6C177.5,276.4,175.7,274.4,174.7,272z M243.4,277.4v-6c0.4-0.1,0.9-0.3,1.3-0.4c1.7-0.6,3.2-1.4,4.6-2.4
		c0,1.1-0.3,2.3-0.7,3.4C247.7,274.4,245.8,276.4,243.4,277.4z"/>
</g>
</svg>
