<svg xmlns="http://www.w3.org/2000/svg" width="16" height="12.56" viewBox="0 0 16 12.56">
  <path d="M714.538,3771.09c0.2,0.14.813,0.56,1.832,1.27s1.8,1.25,2.341,1.63c0.06,0.04.186,0.13,0.38,0.27s0.354,0.25.482,0.34,0.283,0.18.465,0.29a2.359,2.359,0,0,0,.514.24,1.26,1.26,0,0,0,.447.08h0.018a1.26,1.26,0,0,0,.447-0.08,2.381,2.381,0,0,0,.514-0.24c0.181-.11.336-0.2,0.464-0.29s0.289-.2.483-0.34,0.32-.23.38-0.27q0.822-.57,4.182-2.9a4.331,4.331,0,0,0,1.09-1.1,2.367,2.367,0,0,0,.438-1.35,1.443,1.443,0,0,0-1.43-1.43H714.431a1.279,1.279,0,0,0-1.059.47,1.785,1.785,0,0,0-.371,1.16,2.109,2.109,0,0,0,.491,1.22A4.573,4.573,0,0,0,714.538,3771.09Zm13.583,0.95q-2.931,1.98-4.45,3.08c-0.34.25-.615,0.45-0.827,0.59a5.426,5.426,0,0,1-.844.43,2.7,2.7,0,0,1-.983.22H721a2.692,2.692,0,0,1-.983-0.22,5.443,5.443,0,0,1-.845-0.43c-0.211-.14-0.487-0.34-0.826-0.59-0.8-.59-2.285-1.61-4.442-3.08a4.561,4.561,0,0,1-.9-0.77v7.09a1.382,1.382,0,0,0,.42,1.01,1.406,1.406,0,0,0,1.01.41h13.154a1.408,1.408,0,0,0,1.01-.41,1.382,1.382,0,0,0,.42-1.01v-7.09A5.021,5.021,0,0,1,728.121,3772.04Z" transform="translate(-713 -3767.22)"/>
</svg>
