<svg xmlns="http://www.w3.org/2000/svg" width="40" height="40" viewBox="0 0 40 40">
  <defs>
    <style>
      .cancelled-svg {
        fill: #cc2229;
        fill-rule: evenodd;
      }
    </style>
  </defs>
  <path id="cancelled" class="cancelled-svg" d="M518,477a20,20,0,1,0,20,20A19.942,19.942,0,0,0,518,477Zm2.909,20.363,6.818,6.819a0.877,0.877,0,0,1,0,1.272l-1.273,1.273a0.979,0.979,0,0,1-.636.273,0.824,0.824,0,0,1-.636-0.273l-6.819-6.818a0.439,0.439,0,0,0-.636,0l-6.818,6.818a0.983,0.983,0,0,1-.636.273,0.826,0.826,0,0,1-.637-0.273l-1.272-1.273a0.877,0.877,0,0,1,0-1.272l6.818-6.819a0.44,0.44,0,0,0,0-.636l-6.818-6.818a0.879,0.879,0,0,1,0-1.273l1.272-1.273a0.881,0.881,0,0,1,1.273,0l6.818,6.819a0.439,0.439,0,0,0,.636,0l6.819-6.819a0.984,0.984,0,0,1,.636-0.272,0.825,0.825,0,0,1,.636.272l1.273,1.273a0.879,0.879,0,0,1,0,1.273l-6.818,6.818A0.436,0.436,0,0,0,520.909,497.363Z" transform="translate(-498 -477)"/>
</svg>
