<svg xmlns="http://www.w3.org/2000/svg" width="40" height="40" viewBox="0 0 40 40">
  <defs>
    <style>
      .checked-svg {
        fill: #b6cf49;
        fill-rule: evenodd;
      }
    </style>
  </defs>
  <path id="checked" class="checked-svg" d="M518,407a20,20,0,1,0,20,20A19.942,19.942,0,0,0,518,407Zm11.545,13.727h0L515,435.818a0.826,0.826,0,0,1-.637.273,0.708,0.708,0,0,1-.636-0.273l-7.091-7.636L506.454,428a0.881,0.881,0,0,1,0-1.273l1.273-1.273a0.88,0.88,0,0,1,1.273,0l0.091,0.091,5,5.364a0.439,0.439,0,0,0,.636,0l12.182-12.636H527a0.879,0.879,0,0,1,1.273,0l1.272,1.272A0.775,0.775,0,0,1,529.545,420.727Z" transform="translate(-498 -407)"/>
</svg>
