<svg xmlns="http://www.w3.org/2000/svg" width="16" height="16" viewBox="0 0 16 16">
  <path id="close" class="cls-1" d="M486.474,827l5.427-5.425a0.334,0.334,0,0,0,0-.472l-2-2a0.334,0.334,0,0,0-.236-0.1,0.33,0.33,0,0,0-.236.1L484,824.524l-5.427-5.425a0.344,0.344,0,0,0-.472,0l-2,2a0.334,0.334,0,0,0,0,.472L481.519,827l-5.427,5.426a0.334,0.334,0,0,0,0,.472l2,2a0.333,0.333,0,0,0,.472,0L484,829.476l5.428,5.426a0.33,0.33,0,0,0,.236.1,0.334,0.334,0,0,0,.236-0.1l2-2a0.334,0.334,0,0,0,0-.472Z" transform="translate(-476 -819)"/>
</svg>
