<svg xmlns="http://www.w3.org/2000/svg" width="100" height="100" viewBox="0 0 100 100">
  <defs>
    <style>
      .cls-1 {
        fill-rule: evenodd;
        opacity: 0.1;
      }
    </style>
  </defs>
  <path class="cls-1" d="M82.5,80A2.5,2.5,0,1,1,80,82.5,2.5,2.5,0,0,1,82.5,80Zm-20,0A2.5,2.5,0,1,1,60,82.5,2.5,2.5,0,0,1,62.5,80Zm-20,0A2.5,2.5,0,1,1,40,82.5,2.5,2.5,0,0,1,42.5,80Zm-20,0A2.5,2.5,0,1,1,20,82.5,2.5,2.5,0,0,1,22.5,80Zm-20,0A2.5,2.5,0,1,1,0,82.5,2.5,2.5,0,0,1,2.5,80Zm80-20A2.5,2.5,0,1,1,80,62.5,2.5,2.5,0,0,1,82.5,60Zm-20,0A2.5,2.5,0,1,1,60,62.5,2.5,2.5,0,0,1,62.5,60Zm-20,0A2.5,2.5,0,1,1,40,62.5,2.5,2.5,0,0,1,42.5,60Zm-20,0A2.5,2.5,0,1,1,20,62.5,2.5,2.5,0,0,1,22.5,60Zm-20,0A2.5,2.5,0,1,1,0,62.5,2.5,2.5,0,0,1,2.5,60Zm80-20A2.5,2.5,0,1,1,80,42.5,2.5,2.5,0,0,1,82.5,40Zm-20,0A2.5,2.5,0,1,1,60,42.5,2.5,2.5,0,0,1,62.5,40Zm-20,0A2.5,2.5,0,1,1,40,42.5,2.5,2.5,0,0,1,42.5,40Zm-20,0A2.5,2.5,0,1,1,20,42.5,2.5,2.5,0,0,1,22.5,40Zm-20,0A2.5,2.5,0,1,1,0,42.5,2.5,2.5,0,0,1,2.5,40Zm80-20A2.5,2.5,0,1,1,80,22.5,2.5,2.5,0,0,1,82.5,20Zm-20,0A2.5,2.5,0,1,1,60,22.5,2.5,2.5,0,0,1,62.5,20Zm-20,0A2.5,2.5,0,1,1,40,22.5,2.5,2.5,0,0,1,42.5,20Zm-20,0A2.5,2.5,0,1,1,20,22.5,2.5,2.5,0,0,1,22.5,20Zm-20,0A2.5,2.5,0,1,1,0,22.5,2.5,2.5,0,0,1,2.5,20Zm80-20A2.5,2.5,0,1,1,80,2.5,2.5,2.5,0,0,1,82.5,0Zm-20,0A2.5,2.5,0,1,1,60,2.5,2.5,2.5,0,0,1,62.5,0Zm-20,0A2.5,2.5,0,1,1,40,2.5,2.5,2.5,0,0,1,42.5,0Zm-20,0A2.5,2.5,0,1,1,20,2.5,2.5,2.5,0,0,1,22.5,0ZM2.5,0A2.5,2.5,0,1,1,0,2.5,2.5,2.5,0,0,1,2.5,0Z" transform="translate(7.5 7.5)"/>
</svg>
