<svg xmlns="http://www.w3.org/2000/svg" width="26" height="18" viewBox="0 0 26 18">
  <defs>
    <style>
      .cls-1 {
        fill: #6e7073;
        fill-rule: evenodd;
      }
    </style>
  </defs>
  <path id="eye_closed" class="cls-1" d="M827.109,969.891A15.1,15.1,0,0,1,822,965a15.361,15.361,0,0,1,13-7,16.1,16.1,0,0,1,3.6.4l-2.7,2.7a4.005,4.005,0,0,0-4.8,4.8l-3.992,3.992h0Zm4.29,1.71a16.035,16.035,0,0,0,3.6.4,15.361,15.361,0,0,0,13-7,15.1,15.1,0,0,0-5.109-4.891L838.9,964.1A4.005,4.005,0,0,1,835,969a3.977,3.977,0,0,1-.9-0.1l-2.7,2.7h0ZM838,965a3,3,0,0,1-3,3l3-3h0Zm-3-3a3,3,0,0,0-3,3l3-3h0Zm8-6-17,17,1,1,17-17-1-1h0Z" transform="translate(-822 -956)"/>
</svg>
