<svg xmlns="http://www.w3.org/2000/svg" width="13.81" height="29.72" viewBox="0 0 13.81 29.72">
  <defs>
    <style>
      .cls-1 {
        fill-rule: evenodd;
      }
    </style>
  </defs>
  <path id="fb_copy" data-name="fb copy" class="cls-1" d="M1036.72,5243.1v-2.56a5.316,5.316,0,0,1,.05-0.9,1.769,1.769,0,0,1,.24-0.62,1.026,1.026,0,0,1,.61-0.42,4.331,4.331,0,0,1,1.13-.12h2.55v-5.12h-4.08q-3.54,0-5.09,1.68a7.132,7.132,0,0,0-1.55,4.97v3.09h-3.06v5.12h3.06v14.86h6.14v-14.86h4.08l0.54-5.12h-4.62Z" transform="translate(-1027.53 -5233.34)"/>
</svg>
