<svg xmlns="http://www.w3.org/2000/svg" width="40" height="15.843" viewBox="0 0 40 15.843">
  <path d="M425.646,791.489h-2.39a7.7,7.7,0,0,0-12.8,0h-6.383a7.7,7.7,0,0,0-12.8,0h-2.927a1.53,1.53,0,0,0,0,3.039h1.761a7.925,7.925,0,0,0-.182,1.606,7.746,7.746,0,1,0,15.492.015,7.941,7.941,0,0,0-.182-1.621h4.051a8,8,0,0,0-.182,1.606,7.748,7.748,0,1,0,15.5.015,8.015,8.015,0,0,0-.183-1.621h1.222a1.529,1.529,0,0,0,0-3.039h0Zm-27.965,9.665a5.081,5.081,0,1,1,5.037-5.079,5.065,5.065,0,0,1-5.037,5.079h0Zm19.176,0a5.081,5.081,0,1,1,5.041-5.079,5.064,5.064,0,0,1-5.041,5.079h0Zm0,0" transform="translate(-387 -788.063)"/>
</svg>
