<svg xmlns="http://www.w3.org/2000/svg" width="50" height="19.82" viewBox="0 0 50 19.82">
  <path d="M606.308,4838.87H603.32a9.625,9.625,0,0,0-16,0h-7.979a9.624,9.624,0,0,0-16,0h-3.659a1.913,1.913,0,0,0,0,3.8h2.2a9.849,9.849,0,0,0-.228,2,9.683,9.683,0,1,0,19.366.02,9.827,9.827,0,0,0-.228-2.02h5.065a9.849,9.849,0,0,0-.228,2,9.685,9.685,0,1,0,19.37.02,10.042,10.042,0,0,0-.229-2.02h1.528a1.913,1.913,0,0,0,0-3.8h0Zm-34.957,12.08a6.35,6.35,0,1,1,6.3-6.35,6.331,6.331,0,0,1-6.3,6.35h0Zm23.971,0a6.35,6.35,0,1,1,6.3-6.35,6.331,6.331,0,0,1-6.3,6.35h0Zm0,0" transform="translate(-558 -4834.59)"/>
</svg>
