<svg xmlns="http://www.w3.org/2000/svg" width="30" height="30" viewBox="0 0 30 30">
  <defs>
    <style>
      .cls-1 {
        fill-rule: evenodd;
      }
    </style>
  </defs>
  <path id="ig_copy" data-name="ig copy" class="cls-1" d="M920.063,5233.06H907.937A8.948,8.948,0,0,0,899,5242v12.14a8.948,8.948,0,0,0,8.937,8.94h12.126a8.948,8.948,0,0,0,8.937-8.94V5242A8.948,8.948,0,0,0,920.063,5233.06Zm5.919,21.08a5.919,5.919,0,0,1-5.919,5.92H907.937a5.919,5.919,0,0,1-5.919-5.92V5242a5.919,5.919,0,0,1,5.919-5.92h12.126a5.919,5.919,0,0,1,5.919,5.92v12.14h0ZM914,5240.31a7.76,7.76,0,1,0,7.759,7.76A7.768,7.768,0,0,0,914,5240.31Zm0,12.5a4.74,4.74,0,1,1,4.741-4.74A4.739,4.739,0,0,1,914,5252.81Zm7.774-14.3a1.86,1.86,0,1,1-1.859,1.86A1.858,1.858,0,0,1,921.774,5238.51Z" transform="translate(-899 -5233.06)"/>
</svg>
