<svg id="Layer_1" data-name="Layer 1" xmlns="http://www.w3.org/2000/svg" xmlns:xlink="http://www.w3.org/1999/xlink" viewBox="0 0 43.92 40"><defs><style>.cls-1{fill:url(#linear-gradient);}.cls-2{fill:url(#linear-gradient-2);}.cls-3{fill:url(#linear-gradient-3);}</style><linearGradient id="linear-gradient" x1="-875.4" y1="74.12" x2="-881.08" y2="101.09" gradientTransform="matrix(0.98, -0.21, 0.21, 0.98, 870.47, -253.04)" gradientUnits="userSpaceOnUse"><stop offset="0.15" stop-color="#efe18f"/><stop offset="0.59" stop-color="#e5e65b"/><stop offset="0.93" stop-color="#acd038"/></linearGradient><linearGradient id="linear-gradient-2" x1="-893.77" y1="79.87" x2="-893.77" y2="107.3" gradientTransform="matrix(0.98, -0.21, 0.21, 0.98, 870.47, -253.04)" gradientUnits="userSpaceOnUse"><stop offset="0" stop-color="#7fd2f6"/><stop offset="0.75" stop-color="#0d7268"/><stop offset="0.93" stop-color="#104368"/></linearGradient><linearGradient id="linear-gradient-3" x1="-890.07" y1="87.14" x2="-890.07" y2="87.14" xlink:href="#linear-gradient-2"/></defs><title>logo_small</title><path class="cls-1" d="M21.83,3.67a24.86,24.86,0,0,0,3.78,7.05,30,30,0,0,1-4.33-5.6,11.94,11.94,0,0,0-.5,2.55c0,0.28,0,.55-0.06.82A21.76,21.76,0,0,0,24.07,13a22,22,0,0,1-3.42-3.38c-0.06,1.57,0,3,0,4.3a22.35,22.35,0,0,0,2.17,2,16.25,16.25,0,0,1-2.16-1.52c0,0.73,0,1.43,0,2.1a12,12,0,0,0-2.69-.76c-0.55-.09-1.07-0.19-1.58-0.3,5,9.44,14.32,11.56,18.65,12a28.3,28.3,0,0,1,2.23-3.09C40,21.41,42,21.6,42,21.6c-4-.82-3.94-2.79-6.66-2.25s-1.62,2-4.14,2.91a1.71,1.71,0,0,1-.56.1,11.07,11.07,0,0,0,.67-7.8c-1.6-4.84-4.78-6.43-5.89-9.62A17,17,0,0,1,24.3,0a12.6,12.6,0,0,0-2.47,3.67" transform="translate(1.92)"/><path class="cls-2" d="M16.34,15.53c-5.59-1.23-8-3.79-8.47-5.17a9.18,9.18,0,0,0-.47,3,23.36,23.36,0,0,0,7.67,4.95,33.13,33.13,0,0,1-7.59-3.12,17.6,17.6,0,0,0,.69,3.31,21,21,0,0,0,5.93,2.67,24.45,24.45,0,0,1-5.52-1.46c0.15,0.4.32,0.81,0.5,1.24a19.59,19.59,0,0,0,1.86,3.3,21.88,21.88,0,0,0,2.87.64,16.12,16.12,0,0,1-2.55-.19,12.45,12.45,0,0,0,3.31,3.11c-1.58,1.34-2.37,1.58-5,2.18C3.26,31.39,0,30.59-1.92,30.68c0,0,3.92.89,4.91,3.08C3.65,35.19,2.28,37.09.23,40c0,0,7-5.13,11.35-7.17s5.64,1.29,14,.15c5.75-.79,7.79-3.07,9.4-5.42C30.66,27.09,21.37,25,16.34,15.53Z" transform="translate(1.92)"/><path class="cls-3" d="M17.5,15.76h0Z" transform="translate(1.92)"/></svg>