<?xml version="1.0" encoding="utf-8"?>
<!-- Generator: Adobe Illustrator 19.2.1, SVG Export Plug-In . SVG Version: 6.00 Build 0)  -->
<svg version="1.1" id="Layer_1" xmlns="http://www.w3.org/2000/svg" xmlns:xlink="http://www.w3.org/1999/xlink" x="0px" y="0px"
	 viewBox="0 0 270 151.8" style="enable-background:new 0 0 270 151.8;" xml:space="preserve">
<style type="text/css">
	.st0{fill:#231F20;}
	.st1{fill:#BBBDBF;}
</style>
<path class="st0" d="M219.2,83.9h-2.3h-3.1H196h-7.9h-8.4h-7.2h-0.7h-15.4l-34.2,52.9V91.9c0.4-7,8.6-6.7,8.6-6.7v-1.3h-16h-2.5
	H90.5v1.3c0,0,6.5-0.3,7.8,5.1c0.1,0.6,0.2,1.1,0.2,1.7v25h-32V92c0-0.6,0.1-1.1,0.2-1.7c1.3-5.4,7.8-5.1,7.8-5.1v-1.3H50.2v1.3
	c0,0,1.9,0.1,3,0.4c0.9,0.3,1.8,0.6,2.5,1.2c0.8,0.6,1.5,1.5,1.9,2.4C58,90,58.1,91,58.1,92c0.1,1.9,0,51.7,0,51.8
	c0,0.6,0,1.2-0.2,1.9c-1.4,5.1-7.7,4.8-7.7,4.8v1.3h24.2v-1.3c0,0-7.6,0.4-8-6.6v-25.1h32v24.8c0,0.5-0.1,1-0.2,1.5
	c-1.1,5.7-7.8,5.4-7.8,5.4v1.3h24.2v-1.3c0,0-6.2,0.3-7.7-4.8c-0.2-0.6-0.2-1.3-0.2-1.9V91.9c0-0.6,0-1.1,0.2-1.7
	c0.9-3.9,4.5-4.8,6.4-5c2.2,0.2,6.5,1.4,6.8,6.5v59.9h2.1l40.3-62.4v54.3c0,0.2,0,0.4,0,0.6v7.5h9h0.7h7.2h41.7v-19h-2
	c0,8.5-1.8,17.1-12.9,17.1H196c-0.2,0-7.5,0.5-7.9-5.7v-25.6h7c7.5,0.3,8.4,6.1,8.4,12.2h1.7v-26.5h-1.7c0,6.1-1,12.2-8.8,12.4h-6.6
	V91.4c0.4-6.2,7.7-5.8,7.9-5.8h8c10.3,0,12.6,5.7,12.9,13.3v4.9h2.2c0-8.5,1.8-18.3,12.9-18.3h7.3v57.9c0,0.6-0.1,1.2-0.3,1.9
	c-1.8,5.2-9.7,4.9-9.7,4.9v1.3h28.1v-1.3c0,0-7.9,0.3-9.6-4.9c-0.2-0.7-0.3-1.2-0.3-1.9V85.5h7.2c11.1,0,12.9,9.7,12.9,18.3h2.2
	V83.9H219.2z M179.8,144.3c-0.6,5.6-6.2,6.1-7.6,6.1s-6.3-0.5-7.4-5.2c-0.1-0.5-0.1-1-0.1-1.6V91.5c0.5-6.6,7.9-6,7.9-6v-0.3
	c1.9,0.1,6.9,1,7.2,6.6V144.3z"/>
<path class="st1" d="M61.7,9.5c2.9,9.6,9.8,18.4,9.8,18.4c-4-3.7-8-9.4-11.3-14.6c-0.6,2-1.1,4.2-1.3,6.6c-0.1,0.7-0.1,1.4-0.2,2.1
	c3.5,6.6,8.7,11.9,8.7,11.9c-3-2.2-6.1-5.5-8.9-8.8c-0.2,4.1-0.1,7.8-0.1,11.2c3,3.2,5.6,5.3,5.6,5.3c-1.8-1-3.7-2.4-5.6-4
	c0,1.9,0,3.7,0,5.5c-2.2-0.9-4.5-1.6-7-2c-1.4-0.2-2.8-0.5-4.1-0.8c13.1,24.6,37.3,30.1,48.5,31.3c1.9-2.8,3.6-5.6,5.8-8
	c7.2-8,12.4-7.5,12.4-7.5c-10.4-2.1-10.3-7.3-17.3-5.8c-7,1.4-4.2,5.2-10.8,7.6c-0.5,0.2-1,0.2-1.5,0.3c2.1-4.7,4.3-12.5,1.7-20.3
	c-4.2-12.6-12.4-16.7-15.3-25C68,4.6,68,0,68,0S64.4,3.5,61.7,9.5"/>
<g>
	<path class="st0" d="M47.4,40.4c-14.6-3.2-20.9-9.9-22-13.5c0,0-1.1,2.8-1.2,7.7c7.4,8.1,20,12.9,20,12.9c-6.2-1.3-13.9-5-19.7-8.1
		c0.3,2.5,0.8,5.4,1.8,8.6c6.8,4.7,15.4,6.9,15.4,6.9c-4.3-0.4-9.7-2.1-14.4-3.8c0.4,1,0.8,2.1,1.3,3.2c1.2,2.7,2.8,5.7,4.8,8.6
		c4.2,1.2,7.5,1.7,7.5,1.7c-2,0-4.3-0.2-6.6-0.5c2.3,3.1,5.2,6,8.6,8.1c-4.1,3.5-6.2,4.1-13.1,5.7C13.4,81.7,4.9,79.6,0,79.9
		c0,0,10.2,2.3,12.8,8c1.7,3.7-1.9,8.7-7.2,16.2c0,0,18.1-13.4,29.5-18.7c11.4-5.3,14.7,3.4,36.4,0.4c15-2,20.3-8,24.5-14.1
		C84.8,70.6,60.5,65,47.4,40.4z"/>
	<path class="st0" d="M50.5,41L50.5,41L50.5,41z"/>
</g>
<g>
	<path class="st0" d="M125.5,70h4.5v0.4h-4v2.3h2.2c1.3,0,2.3,0.5,2.3,1.8c0,1.2-0.8,1.9-2.2,1.9h-2.7V70H125.5z M128.1,75.9
		c1.2,0,1.8-0.4,1.8-1.5c0-0.9-0.7-1.4-1.9-1.4h-2.1v2.8h2.2V75.9z"/>
	<path class="st0" d="M130.8,76.3l0.1-0.4c0.1,0.1,0.4,0.1,0.6,0.1c0.5,0,1.4-0.3,1.4-4.8V70h3.9v6.4h-0.5v-6h-3v0.8
		c0,4.6-0.9,5.2-1.9,5.2C131.3,76.4,130.9,76.4,130.8,76.3z"/>
	<path class="st0" d="M141.2,69.9h0.5l3,6.4h-0.5l-0.8-1.8h-3.8l-0.8,1.8h-0.6L141.2,69.9z M143.1,74.1l-1.7-3.7l-1.7,3.7H143.1z"/>
	<path class="st0" d="M146,70h4v0.4h-3.5v6H146V70z"/>
	<path class="st0" d="M150.7,73.2c0-1.7,1.3-3.3,3.2-3.3c1.9,0,3.2,1.5,3.2,3.3c0,1.7-1.3,3.3-3.2,3.3
		C152,76.5,150.7,74.9,150.7,73.2z M156.7,73.2c0-1.6-1.2-2.9-2.7-2.9c-1.6,0-2.7,1.3-2.7,2.9c0,1.6,1.2,2.9,2.7,2.9
		C155.5,76.1,156.7,74.8,156.7,73.2z"/>
	<path class="st0" d="M160.1,70.4h-2.2V70h4.9v0.4h-2.2v6h-0.5L160.1,70.4L160.1,70.4z"/>
	<path class="st0" d="M164.3,70h2.6c1.3,0,2.1,0.6,2.1,1.6c0,0.9-0.6,1.3-1.1,1.5c0.8,0.2,1.4,0.6,1.4,1.5c0,1.1-0.9,1.7-2.3,1.7
		h-2.8V70H164.3z M166.8,72.9c1,0,1.6-0.5,1.6-1.3c0-0.7-0.6-1.2-1.6-1.2h-2.2v2.5H166.8z M167.1,75.9c1.1,0,1.8-0.5,1.8-1.3
		c0-0.8-0.7-1.2-1.9-1.2h-2.2V76h2.3V75.9z"/>
	<path class="st0" d="M170.6,73.2c0-1.7,1.3-3.3,3.2-3.3c1.9,0,3.2,1.5,3.2,3.3c0,1.7-1.3,3.3-3.2,3.3
		C171.9,76.5,170.6,74.9,170.6,73.2z M176.5,73.2c0-1.6-1.2-2.9-2.7-2.9c-1.6,0-2.7,1.3-2.7,2.9c0,1.6,1.2,2.9,2.7,2.9
		C175.3,76.1,176.5,74.8,176.5,73.2z"/>
	<path class="st0" d="M178.6,70h2.3c1.4,0,2.4,0.7,2.4,2s-1.2,2-2.5,2h-1.7v2.4h-0.5L178.6,70L178.6,70z M180.9,73.5
		c1.2,0,2-0.6,2-1.6s-0.8-1.5-1.9-1.5h-1.8v3.1H180.9z"/>
	<path class="st0" d="M184.7,70h0.5v5.7l4.2-5.7h0.5v6.4h-0.5v-5.7l-4.2,5.7h-0.5V70z"/>
	<path class="st0" d="M193.5,70.4h-2.2V70h4.9v0.4H194v6h-0.5L193.5,70.4L193.5,70.4z"/>
	<path class="st0" d="M197.7,70h4.6v0.4h-4.1v2.5h3.7v0.4h-3.7v2.6h4.1v0.4h-4.6V70z"/>
	<path class="st0" d="M203,76.3l0.1-0.4c0.1,0.1,0.4,0.1,0.6,0.1c0.5,0,1.4-0.3,1.4-4.8V70h3.9v6.4h-0.5v-6h-3v0.8
		c0,4.6-0.9,5.2-1.9,5.2C203.5,76.4,203.1,76.4,203,76.3z"/>
	<path class="st0" d="M210.9,70h0.5v2.6h1.9c1.2,0,2.3,0.5,2.3,1.8c0,1.2-0.9,2-2.3,2h-2.4V70z M213.3,75.9c1.2,0,1.9-0.5,1.9-1.5
		s-0.7-1.4-1.9-1.4h-1.8v3h1.8V75.9z"/>
	<path class="st0" d="M217.1,70h0.5v3h4.1v-3h0.5v6.4h-0.5v-3h-4.1v3h-0.5V70z"/>
	<path class="st0" d="M224,70h0.5v2.6h1.9c1.2,0,2.3,0.5,2.3,1.8c0,1.2-0.9,2-2.3,2H224V70z M226.3,75.9c1.2,0,1.9-0.5,1.9-1.5
		s-0.7-1.4-1.9-1.4h-1.8v3h1.8V75.9z M229.6,70h0.5v6.4h-0.5V70z"/>
	<path class="st0" d="M232,70h0.5v5.7l4.2-5.7h0.5v6.4h-0.5v-5.7l-4.2,5.7H232V70z M233.3,68.4l0.4-0.1c0.1,0.4,0.4,0.7,0.9,0.7
		c0.5,0,0.8-0.3,0.9-0.7l0.4,0.1c-0.1,0.6-0.6,1.1-1.2,1.1C233.9,69.4,233.4,69,233.3,68.4z"/>
	<path class="st0" d="M244.5,75.9c-0.1,0-0.3,0-0.3,0c-1.9,0-2.9-1.2-2.9-2.7c0-1.5,1.1-2.7,2.9-2.7c0,0,0.2,0,0.3,0v-0.6h0.5v0.6
		c0.1,0,0.3,0,0.3,0c1.9,0,2.9,1.2,2.9,2.7c0,1.5-1.1,2.7-2.9,2.7c0,0-0.2,0-0.3,0v0.7h-0.5V75.9z M244.5,75.5v-4.6h-0.3
		c-1.6,0-2.5,1-2.5,2.3c0,1.3,0.9,2.3,2.5,2.3H244.5z M245.2,75.5c1.6,0,2.5-1,2.5-2.3c0-1.3-0.9-2.3-2.5-2.3h-0.3v4.6H245.2z"/>
	<path class="st0" d="M249.3,73.2c0-1.7,1.3-3.3,3.2-3.3c1.9,0,3.2,1.5,3.2,3.3c0,1.7-1.3,3.3-3.2,3.3
		C250.6,76.5,249.3,74.9,249.3,73.2z M255.3,73.2c0-1.6-1.2-2.9-2.7-2.9c-1.6,0-2.7,1.3-2.7,2.9c0,1.6,1.2,2.9,2.7,2.9
		S255.3,74.8,255.3,73.2z"/>
	<path class="st0" d="M257.4,70h0.5v3h4.1v-3h0.5v6.4H262v-3h-4.1v3h-0.5V70z"/>
	<path class="st0" d="M263.5,75.9h0.7c0.7-0.9,1-2.6,1-4.6v-1.4h3.9v6h0.9l-0.1,1.9h-0.4v-1.5H264l-0.1,1.5h-0.4L263.5,75.9
		L263.5,75.9z M268.6,75.9v-5.5h-3v1.3c0,1.7-0.3,3.4-0.9,4.3h3.9V75.9z"/>
</g>
</svg>
