<svg id="Layer_1" data-name="Layer 1" xmlns="http://www.w3.org/2000/svg" xmlns:xlink="http://www.w3.org/1999/xlink" viewBox="0 0 139.8 78.7"><defs><style>.cls-1{fill:#104368;}.cls-2{fill:url(#linear-gradient);}.cls-3{fill:url(#linear-gradient-2);}.cls-4{fill:url(#linear-gradient-3);}</style><linearGradient id="linear-gradient" x1="-483.43" y1="497.76" x2="-491.09" y2="461.38" gradientTransform="matrix(0.98, -0.21, -0.21, -0.98, 944.57, 446.29)" gradientUnits="userSpaceOnUse"><stop offset="0.15" stop-color="#efe18f"/><stop offset="0.59" stop-color="#e5e65b"/><stop offset="0.93" stop-color="#acd038"/></linearGradient><linearGradient id="linear-gradient-2" x1="-508.08" y1="490.02" x2="-508.08" y2="453.02" gradientTransform="matrix(0.98, -0.21, -0.21, -0.98, 944.57, 446.29)" gradientUnits="userSpaceOnUse"><stop offset="0" stop-color="#7fd2f6"/><stop offset="0.75" stop-color="#0d7268"/><stop offset="0.93" stop-color="#104368"/></linearGradient><linearGradient id="linear-gradient-3" x1="-503.37" y1="480.21" x2="-503.37" y2="480.21" xlink:href="#linear-gradient-2"/></defs><title>logo_niyet2</title><path class="cls-1" d="M440.4,102.3H407.8l-17.7,27.4V106.4c0.2-3.6,4.5-3.5,4.5-3.5v-0.7H373.7v0.7s3.4-.1,4,2.6c0,0.3.1,0.6,0.1,0.9v12.9H361.2V106.4a2.77,2.77,0,0,1,.1-0.9c0.7-2.8,4-2.6,4-2.6v-0.7H352.7v0.7a5.42,5.42,0,0,1,1.5.2,3.1,3.1,0,0,1,1.3.6,3.25,3.25,0,0,1,1,1.3,3.18,3.18,0,0,1,.2,1.4v26.8a3.75,3.75,0,0,1-.1,1c-0.7,2.6-4,2.5-4,2.5v0.7h12.6v-0.7s-3.9.2-4.1-3.4v-13h16.6v12.8a2.49,2.49,0,0,1-.1.8c-0.6,2.9-4,2.8-4,2.8v0.7h12.6v-0.7s-3.2.1-4-2.5a3.4,3.4,0,0,1-.1-1V106.4a2.77,2.77,0,0,1,.1-0.9,3.55,3.55,0,0,1,3.3-2.6,3.51,3.51,0,0,1,3.5,3.4v31.1h1.1L411,105.1v32.3h30.5v-9.9h-1.2c0,4.4-.9,8.9-6.7,8.9h-5.3c-0.1,0-3.9.2-4.1-2.9V120.2h3.6c3.9,0.1,4.4,3.2,4.4,6.4h0.9V112.8h-0.9c0,3.2-.5,6.3-4.6,6.4h-3.4v-13c0.2-3.2,4-3,4.1-3h4.1c5.3,0,6.5,3,6.7,6.9v2.6h1.2c0-4.4.9-9.5,6.7-9.5h3.8v30a3.75,3.75,0,0,1-.1,1c-0.9,2.7-5,2.6-5,2.6v0.7h14.6v-0.7s-4.1.1-5-2.6a3.08,3.08,0,0,1-.1-1v-30H459c5.8,0,6.7,5.1,6.7,9.5h1.2V102.3H440.4ZM420,133.7c-0.3,2.9-3.2,3.2-4,3.2s-3.3-.3-3.8-2.7V106.4c0.2-3.4,4.1-3.1,4.1-3.1V103c1,0.1,3.6.5,3.8,3.4v27.3H420Z" transform="translate(-327.1 -58.8)"/><path class="cls-2" d="M358.9,63.9a32.69,32.69,0,0,0,5.1,9.5,36.51,36.51,0,0,1-5.8-7.5,17,17,0,0,0-.7,3.4c0,0.4-.1.7-0.1,1.1a31.3,31.3,0,0,0,4.5,6.2,28.55,28.55,0,0,1-4.6-4.6,56,56,0,0,0,0,5.8,39.42,39.42,0,0,0,2.9,2.8,23.15,23.15,0,0,1-2.9-2.1v2.8a13.64,13.64,0,0,0-3.6-1c-0.7-.1-1.4-0.3-2.1-0.4,6.8,12.7,19.3,15.6,25.2,16.2,1-1.4,1.9-2.9,3-4.2,3.7-4.1,6.4-3.9,6.4-3.9-5.4-1.1-5.3-3.8-9-3s-2.2,2.7-5.6,3.9a2,2,0,0,1-.8.1,15.05,15.05,0,0,0,.9-10.5c-2.2-6.5-6.5-8.7-7.9-13a22.81,22.81,0,0,1-1.5-6.7,17.05,17.05,0,0,0-3.4,5.1" transform="translate(-327.1 -58.8)"/><path class="cls-3" d="M351.5,79.9c-7.5-1.7-10.9-5.1-11.4-7a11,11,0,0,0-.6,4c3.8,4.2,10.4,6.7,10.4,6.7a44.82,44.82,0,0,1-10.2-4.2,22.3,22.3,0,0,0,.9,4.5,26.66,26.66,0,0,0,8,3.6,30.25,30.25,0,0,1-7.4-2c0.2,0.5.4,1.1,0.7,1.7a29.34,29.34,0,0,0,2.5,4.5c2.2,0.6,3.9.9,3.9,0.9a21.36,21.36,0,0,1-3.4-.3,16.44,16.44,0,0,0,4.5,4.2c-2.1,1.8-3.2,2.1-6.8,2.9-8.5,1.9-12.9.8-15.5,1,0,0,5.3,1.2,6.6,4.2,0.9,1.9-1,4.5-3.7,8.4,0,0,9.4-6.9,15.3-9.7s7.6,1.7,18.9.2c7.8-1.1,10.5-4.1,12.7-7.3C370.8,95.5,358.2,92.6,351.5,79.9Z" transform="translate(-327.1 -58.8)"/><path class="cls-4" d="M353,80.2h0Z" transform="translate(-327.1 -58.8)"/></svg>