<?xml version="1.0" encoding="utf-8"?>
<!-- Generator: Adobe Illustrator 19.2.1, SVG Export Plug-In . SVG Version: 6.00 Build 0)  -->
<svg version="1.1" id="Layer_1" xmlns="http://www.w3.org/2000/svg" xmlns:xlink="http://www.w3.org/1999/xlink" x="0px" y="0px"
	 viewBox="0 0 841.9 595.3" style="enable-background:new 0 0 841.9 595.3;" xml:space="preserve">
<style type="text/css">
	.st0{fill:#231F20;}
	.st1{fill:#BBBDBF;}
</style>
<path class="st0" d="M480.9,207h-2.3h-3.1h-17.7h-7.9h-8.4h-7.2h-0.7h-15.4L384,259.9v-44.9c0.4-7,8.6-6.7,8.6-6.7V207h-16h-2.5
	h-21.8v1.3c0,0,6.5-0.3,7.8,5.1c0.1,0.6,0.2,1.1,0.2,1.7v25h-32v-25c0-0.6,0.1-1.1,0.2-1.7c1.3-5.4,7.8-5.1,7.8-5.1V207h-24.2v1.3
	c0,0,1.9,0.1,3,0.4c0.9,0.3,1.8,0.6,2.5,1.2c0.8,0.6,1.5,1.5,1.9,2.4c0.4,0.8,0.5,1.8,0.5,2.8c0.1,1.9,0,51.7,0,51.8
	c0,0.6,0,1.2-0.2,1.9c-1.4,5.1-7.7,4.8-7.7,4.8v1.3h24.2v-1.3c0,0-7.6,0.4-8-6.6v-25.1h32v24.8c0,0.5-0.1,1-0.2,1.5
	c-1.1,5.7-7.8,5.4-7.8,5.4v1.3h24.2v-1.3c0,0-6.2,0.3-7.7-4.8c-0.2-0.6-0.2-1.3-0.2-1.9V215c0-0.6,0-1.1,0.2-1.7
	c0.9-3.9,4.5-4.8,6.4-5c2.2,0.2,6.5,1.4,6.8,6.5v59.9h2.1l40.3-62.4v54.3c0,0.2,0,0.4,0,0.6v7.5h9h0.7h7.2h41.7v-19H481
	c0,8.5-1.8,17.1-12.9,17.1h-10.3c-0.2,0-7.5,0.5-7.9-5.7v-25.6h7c7.5,0.3,8.4,6.1,8.4,12.2h1.7v-26.5h-1.7c0,6.1-1,12.2-8.8,12.4
	h-6.6v-25.1c0.4-6.2,7.7-5.8,7.9-5.8h8c10.3,0,12.6,5.7,12.9,13.3v4.9h2.2c0-8.5,1.8-18.3,12.9-18.3h7.3v57.9c0,0.6-0.1,1.2-0.3,1.9
	c-1.8,5.2-9.7,4.9-9.7,4.9v1.3h28.1v-1.3c0,0-7.9,0.3-9.6-4.9c-0.2-0.7-0.3-1.2-0.3-1.9v-57.9h7.2c11.1,0,12.9,9.7,12.9,18.3h2.2
	V207H480.9z M441.6,267.4c-0.6,5.6-6.2,6.1-7.6,6.1c-1.4,0-6.3-0.5-7.4-5.2c-0.1-0.5-0.1-1-0.1-1.6v-52.1c0.5-6.6,7.9-6,7.9-6v-0.3
	c1.9,0.1,6.9,1,7.2,6.6V267.4z"/>
<path class="st1" d="M323.6,132.7c2.9,9.6,9.8,18.4,9.8,18.4c-4-3.7-8-9.4-11.3-14.6c-0.6,2-1.1,4.2-1.3,6.6
	c-0.1,0.7-0.1,1.4-0.2,2.1c3.5,6.6,8.7,11.9,8.7,11.9c-3-2.2-6.1-5.5-8.9-8.8c-0.2,4.1-0.1,7.8-0.1,11.2c3,3.2,5.6,5.3,5.6,5.3
	c-1.8-1-3.7-2.4-5.6-4c0,1.9,0,3.7,0,5.5c-2.2-0.9-4.5-1.6-7-2c-1.4-0.2-2.8-0.5-4.1-0.8c13.1,24.6,37.3,30.1,48.5,31.3
	c1.9-2.8,3.6-5.6,5.8-8c7.2-8,12.4-7.5,12.4-7.5c-10.4-2.1-10.3-7.3-17.3-5.8c-7,1.4-4.2,5.2-10.8,7.6c-0.5,0.2-1,0.2-1.5,0.3
	c2.1-4.7,4.3-12.5,1.7-20.3c-4.2-12.6-12.4-16.7-15.3-25c-2.9-8.3-2.9-12.9-2.9-12.9S326.3,126.7,323.6,132.7"/>
<g>
	<path class="st0" d="M309.3,163.6c-14.6-3.2-20.9-9.9-22-13.5c0,0-1.1,2.8-1.2,7.7c7.4,8.1,20,12.9,20,12.9
		c-6.2-1.3-13.9-5-19.7-8.1c0.3,2.5,0.8,5.4,1.8,8.6c6.8,4.7,15.4,6.9,15.4,6.9c-4.3-0.4-9.7-2.1-14.4-3.8c0.4,1,0.8,2.1,1.3,3.2
		c1.2,2.7,2.8,5.7,4.8,8.6c4.2,1.2,7.5,1.7,7.5,1.7c-2,0-4.3-0.2-6.6-0.5c2.3,3.1,5.2,6,8.6,8.1c-4.1,3.5-6.2,4.1-13.1,5.7
		c-16.4,3.7-24.9,1.6-29.8,1.9c0,0,10.2,2.3,12.8,8c1.7,3.7-1.9,8.7-7.2,16.2c0,0,18.1-13.4,29.5-18.7c11.4-5.3,14.7,3.4,36.4,0.4
		c15-2,20.3-8,24.5-14.1C346.6,193.7,322.4,188.2,309.3,163.6z"/>
	<path class="st0" d="M312.4,164.2C312.4,164.2,312.4,164.2,312.4,164.2C312.4,164.2,312.4,164.2,312.4,164.2z"/>
</g>
<g>
	<path class="st0" d="M387.3,193.1h4.5v0.4h-4v2.3h2.2c1.3,0,2.3,0.5,2.3,1.8c0,1.2-0.8,1.9-2.2,1.9h-2.7V193.1z M389.9,199
		c1.2,0,1.8-0.4,1.8-1.5c0-0.9-0.7-1.4-1.9-1.4h-2.1v2.8H389.9z"/>
	<path class="st0" d="M392.6,199.4l0.1-0.4c0.1,0.1,0.4,0.1,0.6,0.1c0.5,0,1.4-0.3,1.4-4.8v-1.2h3.9v6.4h-0.5v-6h-3v0.8
		c0,4.6-0.9,5.2-1.9,5.2C393.1,199.5,392.7,199.5,392.6,199.4z"/>
	<path class="st0" d="M403,193h0.5l3,6.4h-0.5l-0.8-1.8h-3.8l-0.8,1.8H400L403,193z M404.9,197.2l-1.7-3.7l-1.7,3.7H404.9z"/>
	<path class="st0" d="M407.8,193.1h4v0.4h-3.5v6h-0.5V193.1z"/>
	<path class="st0" d="M412.5,196.3c0-1.7,1.3-3.3,3.2-3.3c1.9,0,3.2,1.5,3.2,3.3c0,1.7-1.3,3.3-3.2,3.3
		C413.8,199.6,412.5,198,412.5,196.3z M418.5,196.3c0-1.6-1.2-2.9-2.7-2.9c-1.6,0-2.7,1.3-2.7,2.9c0,1.6,1.2,2.9,2.7,2.9
		C417.3,199.2,418.5,197.9,418.5,196.3z"/>
	<path class="st0" d="M421.9,193.5h-2.2v-0.4h4.9v0.4h-2.2v6h-0.5V193.5z"/>
	<path class="st0" d="M426.1,193.1h2.6c1.3,0,2.1,0.6,2.1,1.6c0,0.9-0.6,1.3-1.1,1.5c0.8,0.2,1.4,0.6,1.4,1.5c0,1.1-0.9,1.7-2.3,1.7
		h-2.8V193.1z M428.6,196c1,0,1.6-0.5,1.6-1.3c0-0.7-0.6-1.2-1.6-1.2h-2.2v2.5H428.6z M428.9,199c1.1,0,1.8-0.5,1.8-1.3
		c0-0.8-0.7-1.2-1.9-1.2h-2.2v2.6H428.9z"/>
	<path class="st0" d="M432.4,196.3c0-1.7,1.3-3.3,3.2-3.3c1.9,0,3.2,1.5,3.2,3.3c0,1.7-1.3,3.3-3.2,3.3
		C433.7,199.6,432.4,198,432.4,196.3z M438.3,196.3c0-1.6-1.2-2.9-2.7-2.9c-1.6,0-2.7,1.3-2.7,2.9c0,1.6,1.2,2.9,2.7,2.9
		S438.3,197.9,438.3,196.3z"/>
	<path class="st0" d="M440.4,193.1h2.3c1.4,0,2.4,0.7,2.4,2c0,1.3-1.2,2-2.5,2h-1.7v2.4h-0.5V193.1z M442.7,196.6c1.2,0,2-0.6,2-1.6
		c0-1-0.8-1.5-1.9-1.5h-1.8v3.1H442.7z"/>
	<path class="st0" d="M446.5,193.1h0.5v5.7l4.2-5.7h0.5v6.4h-0.5v-5.7l-4.2,5.7h-0.5V193.1z"/>
	<path class="st0" d="M455.3,193.5h-2.2v-0.4h4.9v0.4h-2.2v6h-0.5V193.5z"/>
	<path class="st0" d="M459.5,193.1h4.6v0.4H460v2.5h3.7v0.4H460v2.6h4.1v0.4h-4.6V193.1z"/>
	<path class="st0" d="M464.7,199.4l0.1-0.4c0.1,0.1,0.4,0.1,0.6,0.1c0.5,0,1.4-0.3,1.4-4.8v-1.2h3.9v6.4h-0.5v-6h-3v0.8
		c0,4.6-0.9,5.2-1.9,5.2C465.2,199.5,464.8,199.5,464.7,199.4z"/>
	<path class="st0" d="M472.6,193.1h0.5v2.6h1.9c1.2,0,2.3,0.5,2.3,1.8c0,1.2-0.9,2-2.3,2h-2.4V193.1z M475,199
		c1.2,0,1.9-0.5,1.9-1.5c0-1-0.7-1.4-1.9-1.4h-1.8v3H475z"/>
	<path class="st0" d="M478.8,193.1h0.5v3h4.1v-3h0.5v6.4h-0.5v-3h-4.1v3h-0.5V193.1z"/>
	<path class="st0" d="M485.7,193.1h0.5v2.6h1.9c1.2,0,2.3,0.5,2.3,1.8c0,1.2-0.9,2-2.3,2h-2.4V193.1z M488,199
		c1.2,0,1.9-0.5,1.9-1.5c0-1-0.7-1.4-1.9-1.4h-1.8v3H488z M491.3,193.1h0.5v6.4h-0.5V193.1z"/>
	<path class="st0" d="M493.7,193.1h0.5v5.7l4.2-5.7h0.5v6.4h-0.5v-5.7l-4.2,5.7h-0.5V193.1z M495,191.5l0.4-0.1
		c0.1,0.4,0.4,0.7,0.9,0.7c0.5,0,0.8-0.3,0.9-0.7l0.4,0.1c-0.1,0.6-0.6,1.1-1.2,1.1C495.6,192.5,495.1,192.1,495,191.5z"/>
	<path class="st0" d="M506.2,199c-0.1,0-0.3,0-0.3,0c-1.9,0-2.9-1.2-2.9-2.7c0-1.5,1.1-2.7,2.9-2.7c0,0,0.2,0,0.3,0v-0.6h0.5v0.6
		c0.1,0,0.3,0,0.3,0c1.9,0,2.9,1.2,2.9,2.7c0,1.5-1.1,2.7-2.9,2.7c0,0-0.2,0-0.3,0v0.7h-0.5V199z M506.2,198.6v-4.6h-0.3
		c-1.6,0-2.5,1-2.5,2.3c0,1.3,0.9,2.3,2.5,2.3H506.2z M506.9,198.6c1.6,0,2.5-1,2.5-2.3c0-1.3-0.9-2.3-2.5-2.3h-0.3v4.6H506.9z"/>
	<path class="st0" d="M511,196.3c0-1.7,1.3-3.3,3.2-3.3c1.9,0,3.2,1.5,3.2,3.3c0,1.7-1.3,3.3-3.2,3.3C512.3,199.6,511,198,511,196.3
		z M517,196.3c0-1.6-1.2-2.9-2.7-2.9c-1.6,0-2.7,1.3-2.7,2.9c0,1.6,1.2,2.9,2.7,2.9S517,197.9,517,196.3z"/>
	<path class="st0" d="M519.1,193.1h0.5v3h4.1v-3h0.5v6.4h-0.5v-3h-4.1v3h-0.5V193.1z"/>
	<path class="st0" d="M525.2,199h0.7c0.7-0.9,1-2.6,1-4.6v-1.4h3.9v6h0.9l-0.1,1.9h-0.4v-1.5h-5.5l-0.1,1.5h-0.4V199z M530.3,199
		v-5.5h-3v1.3c0,1.7-0.3,3.4-0.9,4.3H530.3z"/>
</g>
</svg>
