<svg id="Layer_1" data-name="Layer 1" xmlns="http://www.w3.org/2000/svg" xmlns:xlink="http://www.w3.org/1999/xlink" viewBox="0 0 370 337"><defs><style>.cls-1,.cls-2{opacity:0.2;}.cls-1{fill:url(#linear-gradient);}.cls-3{fill:url(#linear-gradient-2);}.cls-4{fill:url(#linear-gradient-3);}</style><linearGradient id="linear-gradient" x1="-485.82" y1="125.84" x2="-533.69" y2="353.01" gradientTransform="matrix(0.98, -0.21, 0.21, 0.98, 821.84, -164.4)" gradientUnits="userSpaceOnUse"><stop offset="0.15" stop-color="#efe18f"/><stop offset="0.59" stop-color="#e5e65b"/><stop offset="0.93" stop-color="#acd038"/></linearGradient><linearGradient id="linear-gradient-2" x1="-640.56" y1="174.28" x2="-640.56" y2="405.33" gradientTransform="matrix(0.98, -0.21, 0.21, 0.98, 821.84, -164.4)" gradientUnits="userSpaceOnUse"><stop offset="0" stop-color="#7fd2f6"/><stop offset="0.75" stop-color="#0d7268"/><stop offset="0.93" stop-color="#104368"/></linearGradient><linearGradient id="linear-gradient-3" x1="-609.36" y1="235.51" x2="-609.36" y2="235.53" xlink:href="#linear-gradient-2"/></defs><title>pic_bird</title><path class="cls-1" d="M310.59,89.8c9.48,31.19,31.81,59.42,31.81,59.42-12.81-11.89-26-30.6-36.49-47.14a100.6,100.6,0,0,0-4.24,21.46c-0.2,2.35-.35,4.61-0.49,6.88,11.35,21.44,28.31,38.44,28.31,38.44-9.58-7-19.84-17.81-28.85-28.43-0.53,13.24-.39,25.22-0.28,36.24a188.3,188.3,0,0,0,18.24,17.21,136.87,136.87,0,0,1-18.2-12.82c0,6.18,0,12-.15,17.67a101,101,0,0,0-22.66-6.43c-4.65-.74-9-1.59-13.27-2.52C306.7,269.33,385,287.13,421.43,291.07c6.15-9,11.56-18,18.81-26.06,23.25-25.74,40.27-24.13,40.27-24.13C447,234,447.3,217.39,424.4,222c-22.71,4.53-13.61,16.77-34.91,24.56a14.37,14.37,0,0,1-4.72.84c6.73-15.37,14-40.42,5.65-65.73-13.5-40.77-40.28-54.17-49.64-81.07s-9.38-41.64-9.38-41.64-12,11.33-20.81,30.88" transform="translate(-110.51 -58.91)"/><g class="cls-2"><path class="cls-3" d="M264.32,189.79c-47.12-10.39-67.8-31.9-71.38-43.55,0,0-3.64,9-4,25.08C212.89,197.45,253.6,213,253.6,213c-20-4.31-45.16-16.29-63.93-26.29a148.27,148.27,0,0,0,5.78,27.87c21.92,15.31,50,22.47,50,22.47-14-1.37-31.54-6.76-46.52-12.26,1.26,3.39,2.66,6.85,4.24,10.42A165,165,0,0,0,218.78,263,184.34,184.34,0,0,0,243,268.4a135.82,135.82,0,0,1-21.48-1.63c7.59,10.07,16.87,19.41,27.88,26.24-13.35,11.29-20,13.31-42.27,18.35-53,12-80.58,5.31-96.61,6,0,0,33,7.48,41.41,26,5.46,12.06-6.07,28-23.29,52.56,0,0,58.62-43.25,95.66-60.43s47.55,10.87,118,1.24c48.45-6.62,65.62-25.89,79.18-45.66C385,287.13,306.71,269.33,264.32,189.79Z" transform="translate(-110.51 -58.91)"/><path class="cls-4" d="M274.12,191.71h0Z" transform="translate(-110.51 -58.91)"/></g></svg>