<svg id="Layer_1" data-name="Layer 1" xmlns="http://www.w3.org/2000/svg" viewBox="0 0 370 403.46"><defs><style>.cls-1{fill:#ffd3ae;}.cls-2{fill:#e5b48f;}.cls-3{fill:#f95428;}.cls-4{fill:#e54728;}</style></defs><title>pic_hands_heart</title><path class="cls-1" d="M156.44,129.17c-9.41,12,21.43,44.28,21.43,58.77,0,7.58-11.86,21.59-9.29,28.82-6.52-1.53-35.71-9.93-42.69-9.93V132.28a46.41,46.41,0,0,0-11.29-30.41h0V42a20.91,20.91,0,1,1,41.83,0v87.13h0Z" transform="translate(-71)"/><path class="cls-1" d="M198.25,71.54v57.07a66.8,66.8,0,0,0-41.81,24.74V20.91a20.91,20.91,0,1,1,41.81,0V71.54Z" transform="translate(-71)"/><path class="cls-1" d="M397.39,101.86h0c-7,8.16,8.47,35.69,8.47,47.32l-19.75,69.4a89,89,0,0,0-20.32,2.33c2.57-7.23-19.49-26.37-19.49-33.95,0-14.5-12.17-40.67,9.26-57.81V42a20.91,20.91,0,1,1,41.82,0v59.82h0Z" transform="translate(-71)"/><path class="cls-1" d="M355.57,42V157.92a66.8,66.8,0,0,0-41.81-24.74V20.91a20.91,20.91,0,1,1,41.81,0V42h0Z" transform="translate(-71)"/><path class="cls-1" d="M313.76,71.54v64.73a67.42,67.42,0,0,0-10.67-.85,66.51,66.51,0,0,0-31.16,7.72V71.54A20.91,20.91,0,1,1,313.76,71.54Z" transform="translate(-71)"/><path class="cls-1" d="M240.07,71.54v54.73a66.66,66.66,0,0,0-41.82-6.86V71.54A20.91,20.91,0,1,1,240.07,71.54Z" transform="translate(-71)"/><path class="cls-2" d="M217.47,92.67V71.54A20.91,20.91,0,0,1,228.76,53a20.9,20.9,0,0,0-30.51,18.58V179.8a67,67,0,0,1,19.21-16.69V92.67h0Z" transform="translate(-71)"/><path class="cls-2" d="M291.14,92.67V71.54A20.91,20.91,0,0,1,302.44,53a20.9,20.9,0,0,0-30.51,18.58V179.8a67,67,0,0,1,19.21-16.69V92.67h0Z" transform="translate(-71)"/><path class="cls-2" d="M333,42V20.91A20.91,20.91,0,0,1,344.27,2.34a20.9,20.9,0,0,0-30.51,18.58V129.17A67,67,0,0,1,333,112.48V42h0Z" transform="translate(-71)"/><path class="cls-2" d="M374.78,63.17V42a20.91,20.91,0,0,1,11.29-18.58A20.9,20.9,0,0,0,355.57,42v138.3l10.23,12.19,9-1.61V63.17h0Z" transform="translate(-71)"/><path class="cls-3" d="M369.68,170.16a66.65,66.65,0,0,1-3.87,22.37c-16.38,3.83-11.63,31.59-23.12,43.08-14,14-42.74,13.26-44.92,34l-41.45,41.45-0.31.31-41.76-41.76-0.06-.55c-73-11.19-60-42.42-67.78-76.52,0-.08-0.14,0-0.22-0.06a66.39,66.39,0,0,1-3.83-21.29c0-.36,0-0.72,0-1.08v-0.6c0-.25,0-0.51,0-0.76A66.57,66.57,0,0,1,256,123.08a66.43,66.43,0,0,1,47.08-19.5,67.42,67.42,0,0,1,10.67.85A66.54,66.54,0,0,1,369.68,170.16Z" transform="translate(-71)"/><path class="cls-4" d="M256.49,311.42l-0.24-.24-42.06-42.07a88.91,88.91,0,0,0-67.78-76.52,67.19,67.19,0,0,1-4.05-21.35c0-.48,0-1,0-1.45v-0.22c0-.25,0-0.51,0-0.76A66.57,66.57,0,0,1,220,104.51a31,31,0,0,0-9,5.78,49.46,49.46,0,0,0-9.46,12c-15.17,26.11-15.17,68.45,0,94.56l54.75,94.27Z" transform="translate(-71)"/><polygon class="cls-2" points="214.96 281.45 214.96 402.9 185 402.9 185 311.42 214.96 281.45"/><path class="cls-2" d="M175.65,42V20.91A20.91,20.91,0,0,1,186.94,2.34a20.9,20.9,0,0,0-30.51,18.58V129.17a67,67,0,0,1,19.21-16.69V42h0Z" transform="translate(-71)"/><path class="cls-4" d="M369.68,170.16a66.65,66.65,0,0,1-3.87,22.37c-16.38,3.83-11.63,31.59-23.12,43.08-14,14-42.74,13.26-44.92,34l-41.45,41.45-0.31.31S361.79,176.79,368.28,156.59h0A66.75,66.75,0,0,1,369.68,170.16Z" transform="translate(-71)"/><path class="cls-2" d="M134.34,63.17V42a20.91,20.91,0,0,1,11.29-18.58A20.9,20.9,0,0,0,115.13,42V150.29c1.65-2.11-4.21,52.4-2.27,50.46,4.22-4.22,16.54-7.3,21.48-10.16V63.17Z" transform="translate(-71)"/><polygon class="cls-2" points="214.96 281.45 214.96 402.9 185 402.9 185 311.42 214.96 281.45"/><path class="cls-1" d="M432.75,85.66a46.44,46.44,0,0,0-33,13.66c-0.82.82-1.61,1.67-2.37,2.56a46.45,46.45,0,0,0-11.28,30.41v57.91a88.86,88.86,0,0,0-88.37,79.46L281,286.43l-25,25-41.76-41.76a88.77,88.77,0,0,0-88.36-79.46V132.28A46.64,46.64,0,0,0,79.26,85.66,8.27,8.27,0,0,0,71,93.91V274.57a37.7,37.7,0,0,0,7.28,22.26L128.5,365.3v37.6h255V365.3l50.22-68.47A37.63,37.63,0,0,0,441,274.57V93.91A8.26,8.26,0,0,0,432.75,85.66Z" transform="translate(-71)"/><path class="cls-2" d="M100.86,296.83a37.7,37.7,0,0,1-7.28-22.26V93.91a8.19,8.19,0,0,1,2-5.32,46.47,46.47,0,0,0-16.26-2.94A8.27,8.27,0,0,0,71,93.91V274.57a37.7,37.7,0,0,0,7.28,22.26L128.5,365.3v37.6h22.57V365.3Z" transform="translate(-71)"/><polygon class="cls-2" points="209.98 286.43 209.98 403.46 185 403.46 185 311.42 209.98 286.43"/><path class="cls-2" d="M389.55,190.19a20.59,20.59,0,0,0,20.59-20.59V132.28a46.45,46.45,0,0,1,11.28-30.41c0.76-.88,1.56-1.74,2.37-2.56A46.62,46.62,0,0,1,439.38,89a8.23,8.23,0,0,0-6.63-3.36,46.44,46.44,0,0,0-33,13.66c-0.82.82-1.61,1.67-2.37,2.56a46.45,46.45,0,0,0-11.28,30.41v57.91h3.43Z" transform="translate(-71)"/></svg>