<svg xmlns="http://www.w3.org/2000/svg" width="370" height="386" viewBox="0 0 370 386">
  <defs>
    <style>
      .cls-1 {
        fill: #f3d1ad;
        fill-rule: evenodd;
      }
    </style>
  </defs>
  <path id="hand" class="cls-1" d="M856.767,422.21L813.216,315.577a19.748,19.748,0,0,0-36.575,14.906l18.727,45.852c4.91,12.022-10.26,22.09-19.452,12.908L745.742,359.1,636.288,249.765a19.74,19.74,0,0,0-27.932,27.9L709.691,378.893a11.477,11.477,0,1,1-16.24,16.222L563.535,265.338a19.765,19.765,0,0,0-27.931,0h0a19.712,19.712,0,0,0,0,27.9L665.519,423.017a11.461,11.461,0,0,1,0,16.222h0a11.492,11.492,0,0,1-16.239,0L536.253,326.333a19.74,19.74,0,1,0-27.932,27.9l113.027,112.9a11.477,11.477,0,0,1-16.24,16.222l-73.4-73.323a19.766,19.766,0,0,0-27.932,0h0a19.715,19.715,0,0,0,0,27.9L610.644,544.7l14.03-34.351a8.844,8.844,0,0,1,16.38,6.675l-8.387,20.534a5.333,5.333,0,0,0,8.711,5.78l13.513-13.5,49.017-48.964a8.84,8.84,0,1,1,12.509,12.5L671.036,538.7a5.14,5.14,0,1,0,7.273,7.265l58.18-58.118A8.84,8.84,0,1,1,749,500.341l-58.181,58.118a5.14,5.14,0,0,0,7.273,7.265l50.617-50.563a8.853,8.853,0,0,1,12.509,0h0a8.83,8.83,0,0,1,0,12.5L710.6,578.219a5.14,5.14,0,0,0,7.272,7.265l32.873-32.836a8.84,8.84,0,0,1,12.508,12.5L705.128,623.2C734.44,633.93,777.469,636.925,820.444,594,898.718,515.807,856.767,422.21,856.767,422.21Z" transform="translate(-498 -244)"/>
</svg>
