<svg xmlns="http://www.w3.org/2000/svg" width="40" height="40" viewBox="0 0 40 40">
  <defs>
    <style>
      .processing-svg {
        fill: #e8ad62;
        fill-rule: evenodd;
      }
    </style>
  </defs>
  <path id="processing" class="processing-svg" d="M518,337a20,20,0,1,0,20,20A19.942,19.942,0,0,0,518,337Zm10.909,24.545a0.911,0.911,0,0,1-.909.909H515.636a0.5,0.5,0,0,0-.363.819l1.818,1.818a0.979,0.979,0,0,1,.272.636,0.822,0.822,0,0,1-.272.636l-1.273,1.273a0.983,0.983,0,0,1-.636.273,0.826,0.826,0,0,1-.637-0.273l-7.272-7.273a0.979,0.979,0,0,1-.273-0.636,0.933,0.933,0,0,1,.909-0.909h20a0.911,0.911,0,0,1,.909.909v1.818h0.091Zm-0.273-6.636a0.824,0.824,0,0,1-.636.273H508a0.911,0.911,0,0,1-.909-0.91v-1.818a0.911,0.911,0,0,1,.909-0.909h12.363a0.5,0.5,0,0,0,.364-0.818l-1.818-1.818a0.983,0.983,0,0,1-.273-0.636,0.826,0.826,0,0,1,.273-0.637l1.273-1.272a0.979,0.979,0,0,1,.636-0.273,0.823,0.823,0,0,1,.636.273l7.273,7.272a0.983,0.983,0,0,1,.273.636A1.467,1.467,0,0,1,528.636,354.909Z" transform="translate(-498 -337)"/>
</svg>
