<svg xmlns="http://www.w3.org/2000/svg" width="49.969" height="50" viewBox="0 0 49.969 50">
  <path d="M705.912,1762.95v1.04a22.878,22.878,0,0,1-38.591,16.67h6.317v-2.09h-8.329a1.045,1.045,0,0,0-1.041,1.05v8.33h2.083v-5.33A24.98,24.98,0,0,0,708,1763.99v-1.04h-2.083Zm-22.9-21.87a22.739,22.739,0,0,1,15.687,6.25h-6.317v2.08h8.329a1.037,1.037,0,0,0,1.041-1.04v-8.33h-2.082v5.33a24.98,24.98,0,0,0-41.644,18.62v1.05H660.1v-1.05A22.935,22.935,0,0,1,683.008,1741.08Z" transform="translate(-658.031 -1739)"/>
</svg>
