<svg xmlns="http://www.w3.org/2000/svg" width="30" height="16.931" viewBox="0 0 32 18.06">
  <defs>
    <style>
      .cls-1 {
        fill-rule: evenodd;
      }
    </style>
  </defs>
  <path id="vk_copy" data-name="vk copy" class="cls-1" d="M985.541,5250.52c1.061,1.04,2.182,2.01,3.134,3.15a9.272,9.272,0,0,1,1.123,1.62,1.155,1.155,0,0,1-.709,1.8h-4.662a3.578,3.578,0,0,1-2.968-1.21c-0.645-.65-1.243-1.35-1.864-2.03a4.07,4.07,0,0,0-.839-0.74,0.971,0.971,0,0,0-1.552.37,4.913,4.913,0,0,0-.491,2.17c-0.05,1.1-.382,1.39-1.484,1.44a12,12,0,0,1-6.671-1.43,14.818,14.818,0,0,1-4.488-4.2,56.208,56.208,0,0,1-5.907-10.51c-0.373-.83-0.1-1.27.816-1.29q2.28-.045,4.564,0a1.335,1.335,0,0,1,1.265.95,28.172,28.172,0,0,0,3.094,5.72,4.865,4.865,0,0,0,1.168,1.28,0.71,0.71,0,0,0,1.207-.35,4.081,4.081,0,0,0,.268-1.2,17.91,17.91,0,0,0-.075-4.21,1.769,1.769,0,0,0-1.5-1.61c-0.445-.08-0.379-0.24-0.163-0.5a1.67,1.67,0,0,1,1.429-.71h5.269a1.256,1.256,0,0,1,1.127,1.37l0,5.84a1.7,1.7,0,0,0,.744,1.49,1.028,1.028,0,0,0,1.052-.51,18.271,18.271,0,0,0,2.966-4.55c0.357-.72.664-1.47,0.961-2.21a1.128,1.128,0,0,1,1.191-.82l5.071,0.01a3.329,3.329,0,0,1,.448.02,0.883,0.883,0,0,1,.824,1.35,12.652,12.652,0,0,1-2.015,3.49c-0.846,1.17-1.75,2.29-2.589,3.47-0.77,1.07-.709,1.61.248,2.54h0Z" transform="translate(-958 -5239.03)"/>
</svg>
